<?xml version="1.0" encoding="utf-8" standalone="no"?>
<!DOCTYPE svg PUBLIC "-//W3C//DTD SVG 1.1//EN"
  "http://www.w3.org/Graphics/SVG/1.1/DTD/svg11.dtd">
<svg xmlns:xlink="http://www.w3.org/1999/xlink" width="1028.16pt" height="561.6pt" viewBox="0 0 1028.16 561.6" xmlns="http://www.w3.org/2000/svg" version="1.1">
 <metadata>
  <rdf:RDF xmlns:dc="http://purl.org/dc/elements/1.1/" xmlns:cc="http://creativecommons.org/ns#" xmlns:rdf="http://www.w3.org/1999/02/22-rdf-syntax-ns#">
   <cc:Work>
    <dc:type rdf:resource="http://purl.org/dc/dcmitype/StillImage"/>
    <dc:date>2024-11-16T01:30:53.375557</dc:date>
    <dc:format>image/svg+xml</dc:format>
    <dc:creator>
     <cc:Agent>
      <dc:title>Matplotlib v3.8.4, https://matplotlib.org/</dc:title>
     </cc:Agent>
    </dc:creator>
   </cc:Work>
  </rdf:RDF>
 </metadata>
 <defs>
  <style type="text/css">*{stroke-linejoin: round; stroke-linecap: butt}</style>
 </defs>
 <g id="figure_1">
  <g id="patch_1">
   <path d="M 0 561.6 
L 1028.16 561.6 
L 1028.16 0 
L 0 0 
z
" style="fill: #ffffff"/>
  </g>
  <g id="axes_1">
   <g id="patch_2">
    <path d="M 277.267268 499.824 
L 776.597231 499.824 
L 526.93225 67.391568 
z
" clip-path="url(#p409f4397c3)" style="fill: #1f77b4; stroke: #000000; stroke-linejoin: miter"/>
   </g>
   <g id="TriContourSet_1">
    <path d="M 343.942505 499.824 
L 342.569252 499.150079 
L 341.272291 498.251518 
L 337.741675 498.863039 
L 338.675251 495.499676 
L 336.682733 492.048532 
L 335.280331 491.175351 
L 336.478355 489.948178 
L 337.535858 486.851027 
L 336.580535 483.576896 
L 336.233088 482.526703 
L 335.614899 479.80398 
L 339.229577 478.202378 
L 339.605493 478.067243 
L 341.155897 473.878054 
L 341.411964 472.547493 
L 341.411964 469.55373 
L 341.045323 467.195007 
L 339.764051 465.229405 
L 338.161166 463.541864 
L 337.670086 460.905081 
L 337.733006 457.526703 
L 337.708552 456.580757 
L 338.060691 455.067243 
L 336.437869 452.256432 
L 338.208221 449.70115 
L 338.50862 447.932108 
L 338.591229 445.499676 
L 338.684854 443.607784 
L 335.836217 441.622848 
L 335.433897 439.283459 
L 336.042566 437.301477 
L 339.102897 435.964792 
L 340.045347 435.585849 
L 340.682174 434.959135 
L 340.488885 433.564192 
L 339.096067 430.634811 
L 340.238325 427.271447 
L 340.099622 426.310486 
L 340.364418 425.131125 
L 340.643764 421.986162 
L 338.548673 419.62744 
L 337.227793 417.661838 
L 338.154953 415.014292 
L 338.48649 413.337514 
L 338.717069 410.687121 
L 338.290035 409.013189 
L 336.178601 406.435227 
L 335.002295 404.688865 
L 335.769846 402.234519 
L 336.792656 400.364541 
L 335.367272 399.191842 
L 334.690214 400.364541 
L 332.193564 404.688865 
L 329.696914 409.013189 
L 327.200265 413.337514 
L 324.703615 417.661838 
L 322.206965 421.986162 
L 319.710315 426.310486 
L 317.213665 430.634811 
L 314.717016 434.959135 
L 312.220366 439.283459 
L 309.723716 443.607784 
L 307.227066 447.932108 
L 304.730416 452.256432 
L 302.233767 456.580757 
L 299.737117 460.905081 
L 297.240467 465.229405 
L 294.743817 469.55373 
L 292.247167 473.878054 
L 289.750517 478.202378 
L 287.253868 482.526703 
L 284.757218 486.851027 
L 282.260568 491.175351 
L 279.763918 495.499676 
L 277.267268 499.824 
L 282.260568 499.824 
L 287.253868 499.824 
L 292.247167 499.824 
L 297.240467 499.824 
L 302.233767 499.824 
L 307.227066 499.824 
L 312.220366 499.824 
L 317.213665 499.824 
L 322.206965 499.824 
L 327.200265 499.824 
L 332.193564 499.824 
L 337.186864 499.824 
L 342.180164 499.824 
z
" clip-path="url(#p409f4397c3)" style="fill: #440154"/>
    <path d="M 335.367272 399.191842 
L 336.792656 400.364541 
L 335.769846 402.234519 
L 335.002295 404.688865 
L 336.178601 406.435227 
L 338.290035 409.013189 
L 338.717069 410.687121 
L 338.48649 413.337514 
L 338.154953 415.014292 
L 337.227793 417.661838 
L 338.548673 419.62744 
L 340.643764 421.986162 
L 340.364418 425.131125 
L 340.099622 426.310486 
L 340.238325 427.271447 
L 339.096067 430.634811 
L 340.488885 433.564192 
L 340.682174 434.959135 
L 340.045347 435.585849 
L 339.102897 435.964792 
L 336.042566 437.301477 
L 335.433897 439.283459 
L 335.836217 441.622848 
L 338.684854 443.607784 
L 338.591229 445.499676 
L 338.50862 447.932108 
L 338.208221 449.70115 
L 336.437869 452.256432 
L 338.060691 455.067243 
L 337.708552 456.580757 
L 337.733006 457.526703 
L 337.670086 460.905081 
L 338.161166 463.541864 
L 339.764051 465.229405 
L 341.045323 467.195007 
L 341.411964 469.55373 
L 341.411964 472.547493 
L 341.155897 473.878054 
L 339.605493 478.067243 
L 339.229577 478.202378 
L 335.614899 479.80398 
L 336.233088 482.526703 
L 336.580535 483.576896 
L 337.535858 486.851027 
L 336.478355 489.948178 
L 335.280331 491.175351 
L 336.682733 492.048532 
L 338.675251 495.499676 
L 337.741675 498.863039 
L 341.272291 498.251518 
L 342.569252 499.150079 
L 343.942505 499.824 
L 347.173463 499.824 
L 352.166763 499.824 
L 357.160062 499.824 
L 362.153362 499.824 
L 367.146662 499.824 
L 372.139961 499.824 
L 377.133261 499.824 
L 382.126561 499.824 
L 387.11986 499.824 
L 392.11316 499.824 
L 397.106459 499.824 
L 393.63286 497.191803 
L 393.660379 495.499676 
L 392.924571 492.580757 
L 394.817864 491.175351 
L 396.248236 489.688865 
L 395.954159 486.851027 
L 395.599048 485.137616 
L 395.886722 482.526703 
L 395.508604 479.759135 
L 395.841034 478.202378 
L 397.151042 473.955274 
L 397.170476 473.878054 
L 397.138468 473.822614 
L 396.043072 469.55373 
L 395.819124 467.459135 
L 395.970053 465.229405 
L 396.265751 463.773255 
L 398.859426 462.193178 
L 400.019218 461.625802 
L 401.191886 460.905081 
L 399.862021 460.456633 
L 399.191896 460.192839 
L 395.803061 458.838308 
L 392.315591 456.580757 
L 392.242297 456.357085 
L 392.242297 452.256432 
L 392.321214 448.292468 
L 393.07341 447.932108 
L 396.186641 446.338936 
L 398.914378 444.800701 
L 399.852774 444.040216 
L 400.554214 443.607784 
L 399.84375 443.190981 
L 399.138616 442.803258 
L 395.875717 441.415169 
L 392.847469 440.55532 
L 391.75986 439.895392 
L 390.371311 439.283459 
L 390.864835 437.121297 
L 393.985647 436.040216 
L 394.921891 435.499676 
L 395.15256 434.959135 
L 394.869877 434.508685 
L 393.875501 433.687275 
L 391.003538 432.556733 
L 391.176916 430.634811 
L 391.78751 430.070769 
L 392.88136 429.304249 
L 395.572803 427.97844 
L 395.688362 426.310486 
L 395.931565 424.021138 
L 393.427186 424.262122 
L 391.432255 423.165523 
L 389.910233 421.986162 
L 391.210756 420.423153 
L 394.13747 418.479953 
L 395.173569 418.638298 
L 399.603109 417.661838 
L 394.845979 417.25278 
L 393.689991 416.068666 
L 391.65224 414.13585 
L 391.609634 413.337514 
L 391.303436 411.93503 
L 392.390565 409.013189 
L 390.387081 407.678521 
L 387.674671 404.688865 
L 390.686503 402.217822 
L 393.64956 400.364541 
L 391.756496 396.657977 
L 391.053975 396.040216 
L 390.171321 392.676853 
L 389.801447 391.715892 
L 390.00061 391.050611 
L 390.628665 387.391568 
L 390.00061 383.732524 
L 389.812326 383.067243 
L 392.257197 378.992399 
L 392.347221 378.742919 
L 392.188059 378.613189 
L 391.976979 378.507047 
L 388.414419 376.500677 
L 386.244412 374.418595 
L 386.265743 371.573644 
L 383.445545 372.378819 
L 381.454386 371.258511 
L 379.629911 370.09427 
L 381.294344 368.652829 
L 383.919027 366.989627 
L 385.767508 367.751928 
L 386.031577 365.769946 
L 385.131787 364.889065 
L 384.760389 361.445622 
L 384.972741 357.726703 
L 385.436073 357.121297 
L 384.900616 356.640817 
L 382.883121 352.796973 
L 382.580497 352.010732 
L 381.849155 348.472649 
L 381.15329 345.834078 
L 380.038453 344.148324 
L 381.101151 342.372263 
L 382.126561 339.824 
L 380.84152 337.725431 
L 379.629911 335.499676 
L 378.330285 333.426369 
L 376.519331 331.175351 
L 376.188583 328.487258 
L 374.636611 331.175351 
L 372.139961 335.499676 
L 369.643311 339.824 
L 367.146662 344.148324 
L 364.650012 348.472649 
L 362.153362 352.796973 
L 359.656712 357.121297 
L 357.160062 361.445622 
L 354.663413 365.769946 
L 352.166763 370.09427 
L 349.670113 374.418595 
L 347.173463 378.742919 
L 344.676813 383.067243 
L 342.180164 387.391568 
L 339.683514 391.715892 
L 337.186864 396.040216 
z
M 399.566394 409.076782 
L 399.638776 409.074965 
L 399.699134 409.013189 
L 399.661171 408.912624 
L 398.142805 404.688865 
L 397.644953 403.756167 
L 395.79869 402.423743 
L 396.286664 404.688865 
L 396.220551 406.223303 
L 399.365333 409.013189 
z
" clip-path="url(#p409f4397c3)" style="fill: #481f70"/>
    <path d="M 409.198077 271.313136 
L 410.404941 272.046835 
L 412.886256 273.573672 
L 414.927374 274.959135 
L 416.563821 275.852591 
L 418.91543 278.138785 
L 419.927399 278.675351 
L 420.493444 279.283459 
L 423.789404 280.634811 
L 425.849941 281.501062 
L 427.961283 282.057554 
L 431.920854 283.367544 
L 432.178445 283.401864 
L 432.451188 283.607784 
L 435.160235 286.885901 
L 437.138948 287.932108 
L 439.04294 288.809507 
L 439.913601 292.256432 
L 441.436855 293.311773 
L 442.82755 293.609847 
L 446.103212 293.878054 
L 448.311334 294.45939 
L 450.5916 294.752587 
L 453.547816 294.880595 
L 456.443503 293.265441 
L 458.08524 294.090994 
L 460.917891 294.164223 
L 464.099896 295.860036 
L 465.275854 292.256432 
L 466.649505 291.62744 
L 467.324735 291.715892 
L 471.398661 291.20457 
L 472.676696 291.094674 
L 476.225644 290.916501 
L 478.372411 289.878054 
L 480.432147 292.256432 
L 480.678527 294.532393 
L 482.686067 293.457634 
L 484.620605 292.256432 
L 486.087059 290.699676 
L 486.591645 287.932108 
L 488.662707 286.512181 
L 490.822168 285.611739 
L 492.82623 285.074965 
L 496.844419 283.829544 
L 497.061618 283.762224 
L 497.471782 283.607784 
L 497.804669 282.166342 
L 497.653356 279.283459 
L 499.302658 278.995171 
L 499.838976 278.642819 
L 503.366311 277.384976 
L 506.012046 276.599396 
L 507.458381 275.824 
L 509.705366 274.959135 
L 511.328188 273.878054 
L 512.826178 270.634811 
L 513.786624 269.487541 
L 515.05164 266.310486 
L 515.605985 263.990117 
L 515.865011 261.986162 
L 517.339858 258.344626 
L 521.703417 258.069793 
L 522.119867 257.975195 
L 522.771167 257.661838 
L 522.276335 257.07747 
L 521.174669 253.337514 
L 523.225103 251.240871 
L 526.293572 250.119412 
L 527.336119 249.712712 
L 528.596683 249.013189 
L 530.031539 245.732667 
L 532.117599 244.688865 
L 533.352206 242.835583 
L 533.523405 240.364541 
L 534.796697 236.688865 
L 535.021395 236.040216 
L 535.254416 234.598775 
L 536.478264 231.715892 
L 536.738368 231.40329 
L 538.416839 229.121297 
L 539.678304 227.84676 
L 540.525121 227.391568 
L 543.736623 226.227326 
L 545.561098 223.067243 
L 545.507324 220.645622 
L 547.904108 221.337514 
L 550.41036 220.489281 
L 553.771235 218.742919 
L 551.898748 214.418595 
L 555.677461 212.314869 
L 556.551595 210.09427 
L 558.636694 208.791763 
L 560.411914 208.322006 
L 562.981437 207.66843 
L 564.832212 205.769946 
L 564.381997 201.445622 
L 565.953962 197.121297 
L 565.318241 194.418595 
L 565.062901 192.796973 
L 568.445172 191.18595 
L 571.27275 189.510486 
L 572.220316 189.076043 
L 573.120271 188.472649 
L 575.54349 186.1833 
L 579.068172 184.148324 
L 579.134928 183.755204 
L 578.714616 179.824 
L 578.785746 176.497597 
L 578.737733 175.499676 
L 579.187711 175.197979 
L 579.861226 174.634811 
L 583.731033 174.418595 
L 585.353855 173.769946 
L 587.267953 171.896072 
L 586.851845 171.175351 
L 571.871946 145.229405 
L 569.375296 140.905081 
L 526.932 67.392 
L 524.43535 71.716324 
L 521.9387 76.040649 
L 519.442051 80.364973 
L 516.945401 84.689297 
L 514.448751 89.013622 
L 511.952101 93.337946 
L 509.455451 97.66227 
L 506.958801 101.986595 
L 504.462152 106.310919 
L 501.965502 110.635243 
L 499.468852 114.959568 
L 496.972202 119.283892 
L 494.475552 123.608216 
L 491.978903 127.932541 
L 489.482253 132.256865 
L 486.985603 136.581189 
L 484.489203 140.905081 
L 481.992553 145.229405 
L 479.495903 149.55373 
L 476.999253 153.878054 
L 474.502604 158.202378 
L 472.005954 162.526703 
L 469.509304 166.851027 
L 467.012654 171.175351 
L 464.516004 175.499676 
L 462.019355 179.824 
L 459.522705 184.148324 
L 457.026055 188.472649 
L 454.529405 192.796973 
L 452.032755 197.121297 
L 449.536105 201.445622 
L 447.039456 205.769946 
L 444.542806 210.09427 
L 442.046156 214.418595 
L 439.549506 218.742919 
L 437.052856 223.067243 
L 434.556207 227.391568 
L 432.059557 231.715892 
L 429.562907 236.040216 
L 427.066257 240.364541 
L 424.569607 244.688865 
L 422.072958 249.013189 
L 419.576308 253.337514 
L 417.079658 257.661838 
L 414.583008 261.986162 
L 412.086358 266.310486 
L 409.589708 270.634811 
z
M 376.188583 328.487258 
L 376.519331 331.175351 
L 378.330285 333.426369 
L 379.629911 335.499676 
L 380.84152 337.725431 
L 382.126561 339.824 
L 381.101151 342.372263 
L 380.038453 344.148324 
L 381.15329 345.834078 
L 381.849155 348.472649 
L 382.580497 352.010732 
L 382.883121 352.796973 
L 384.900616 356.640817 
L 385.436073 357.121297 
L 384.972741 357.726703 
L 384.760389 361.445622 
L 385.131787 364.889065 
L 386.031577 365.769946 
L 385.767508 367.751928 
L 383.919027 366.989627 
L 381.294344 368.652829 
L 379.629911 370.09427 
L 381.454386 371.258511 
L 383.445545 372.378819 
L 386.265743 371.573644 
L 386.244412 374.418595 
L 388.414419 376.500677 
L 391.976979 378.507047 
L 392.188059 378.613189 
L 392.347221 378.742919 
L 392.257197 378.992399 
L 389.812326 383.067243 
L 390.00061 383.732524 
L 390.628665 387.391568 
L 390.00061 391.050611 
L 389.801447 391.715892 
L 390.171321 392.676853 
L 391.053975 396.040216 
L 391.756496 396.657977 
L 393.64956 400.364541 
L 390.686503 402.217822 
L 387.674671 404.688865 
L 390.387081 407.678521 
L 392.390565 409.013189 
L 391.303436 411.93503 
L 391.609634 413.337514 
L 391.65224 414.13585 
L 393.689991 416.068666 
L 394.845979 417.25278 
L 399.603109 417.661838 
L 395.173569 418.638298 
L 394.13747 418.479953 
L 391.210756 420.423153 
L 389.910233 421.986162 
L 391.432255 423.165523 
L 393.427186 424.262122 
L 395.931565 424.021138 
L 395.688362 426.310486 
L 395.572803 427.97844 
L 392.88136 429.304249 
L 391.78751 430.070769 
L 391.176916 430.634811 
L 391.003538 432.556733 
L 393.875501 433.687275 
L 394.869877 434.508685 
L 395.15256 434.959135 
L 394.921891 435.499676 
L 393.985647 436.040216 
L 390.864835 437.121297 
L 390.371311 439.283459 
L 391.75986 439.895392 
L 392.847469 440.55532 
L 395.875717 441.415169 
L 399.138616 442.803258 
L 399.84375 443.190981 
L 400.554214 443.607784 
L 399.852774 444.040216 
L 398.914378 444.800701 
L 396.186641 446.338936 
L 393.07341 447.932108 
L 392.321214 448.292468 
L 392.242297 452.256432 
L 392.242297 456.357085 
L 392.315591 456.580757 
L 395.803061 458.838308 
L 399.191896 460.192839 
L 399.862021 460.456633 
L 401.191886 460.905081 
L 400.019218 461.625802 
L 398.859426 462.193178 
L 396.265751 463.773255 
L 395.970053 465.229405 
L 395.819124 467.459135 
L 396.043072 469.55373 
L 397.138468 473.822614 
L 397.170476 473.878054 
L 397.151042 473.955274 
L 395.841034 478.202378 
L 395.508604 479.759135 
L 395.886722 482.526703 
L 395.599048 485.137616 
L 395.954159 486.851027 
L 396.248236 489.688865 
L 394.817864 491.175351 
L 392.924571 492.580757 
L 393.660379 495.499676 
L 393.63286 497.191803 
L 397.106459 499.824 
L 402.099759 499.824 
L 407.093059 499.824 
L 412.086358 499.824 
L 417.079658 499.824 
L 422.072958 499.824 
L 427.066257 499.824 
L 432.059557 499.824 
L 437.052856 499.824 
L 442.046156 499.824 
L 443.829477 499.824 
L 442.845084 498.440216 
L 440.075117 495.499676 
L 439.815107 495.039641 
L 439.578879 491.175351 
L 438.71729 488.292468 
L 437.959048 486.851027 
L 438.843217 485.627698 
L 440.730354 482.526703 
L 438.955897 479.230539 
L 438.67888 478.202378 
L 438.70905 476.746665 
L 440.689281 473.878054 
L 439.143801 470.256432 
L 438.900377 469.55373 
L 438.003961 466.876767 
L 437.658105 465.229405 
L 439.672292 461.117753 
L 439.75471 460.905081 
L 439.666537 460.702378 
L 440.399717 456.580757 
L 439.666537 452.459135 
L 439.776474 452.256432 
L 442.41728 448.574913 
L 443.026983 447.932108 
L 442.398248 447.322267 
L 440.852106 445.863953 
L 439.849104 447.932108 
L 439.108921 451.493316 
L 436.636748 448.652829 
L 436.519221 447.932108 
L 436.71997 447.355532 
L 438.967763 443.607784 
L 438.973356 442.609863 
L 439.826912 439.283459 
L 440.888289 437.277976 
L 443.846066 434.959135 
L 440.733814 432.907853 
L 439.665629 430.634811 
L 440.36808 427.728298 
L 441.040043 426.310486 
L 439.846726 425.795686 
L 439.09557 425.524246 
L 435.115801 425.341241 
L 434.153521 421.986162 
L 435.164634 418.715665 
L 439.11431 418.415619 
L 439.833556 418.153827 
L 440.944693 417.661838 
L 440.054148 416.787772 
L 438.899693 416.536329 
L 435.42853 416.150929 
L 432.83976 413.337514 
L 435.503212 410.65345 
L 436.494782 409.013189 
L 436.171686 406.215097 
L 435.055537 404.688865 
L 433.557547 402.09427 
L 433.324982 400.364541 
L 433.619963 398.742919 
L 434.111598 396.040216 
L 434.947838 392.394217 
L 435.161455 391.715892 
L 434.70094 391.465206 
L 433.364624 387.391568 
L 434.889093 383.64382 
L 435.464079 383.067243 
L 434.968876 382.352479 
L 433.307882 380.905081 
L 431.639952 379.469696 
L 431.134872 378.742919 
L 430.6329 376.271876 
L 430.269506 374.418595 
L 430.900398 372.101992 
L 431.076028 370.09427 
L 429.235477 366.33707 
L 428.421581 365.769946 
L 425.841486 363.566988 
L 424.662076 361.445622 
L 424.827881 357.568641 
L 424.769339 357.121297 
L 424.684837 356.921713 
L 422.375582 352.796973 
L 422.281012 352.436613 
L 421.890276 348.472649 
L 420.607533 346.686515 
L 419.403273 344.148324 
L 418.510665 341.669748 
L 417.391739 339.824 
L 416.625722 336.285916 
L 416.512237 335.499676 
L 416.422645 334.361696 
L 416.153934 331.175351 
L 415.120748 330.243958 
L 413.029537 328.484661 
L 411.787464 327.368728 
L 411.245902 326.851027 
L 410.065261 323.350384 
L 409.781758 322.526703 
L 409.724663 322.292955 
L 408.445411 318.202378 
L 407.5039 317.490781 
L 405.912824 316.158152 
L 404.154928 314.642721 
L 403.447157 313.878054 
L 403.148352 311.369946 
L 403.127791 309.55373 
L 402.526016 308.81543 
L 400.455624 305.229405 
L 399.930795 304.661838 
L 398.383815 303.117526 
L 396.632957 301.725212 
L 395.962162 300.905081 
L 394.212615 297.268717 
L 392.11316 300.905081 
L 389.61651 305.229405 
L 387.11986 309.55373 
L 384.62321 313.878054 
L 382.126561 318.202378 
L 379.629911 322.526703 
L 377.133261 326.851027 
z
M 399.365333 409.013189 
L 396.220551 406.223303 
L 396.286664 404.688865 
L 395.79869 402.423743 
L 397.644953 403.756167 
L 398.142805 404.688865 
L 399.661171 408.912624 
L 399.699134 409.013189 
L 399.638776 409.074965 
L 399.566394 409.076782 
z
M 444.595926 287.840101 
L 444.977006 287.932108 
L 444.631972 288.086548 
L 444.426683 288.133239 
L 443.918643 287.932108 
L 444.471473 287.808556 
z
M 506.613361 284.206536 
L 507.217325 284.055128 
L 509.099037 283.607784 
L 507.383011 282.873465 
L 506.126835 282.166342 
L 505.294618 283.607784 
z
" clip-path="url(#p409f4397c3)" style="fill: #3b528b"/>
    <path d="M 587.267953 171.896072 
L 585.353855 173.769946 
L 583.731033 174.418595 
L 579.861226 174.634811 
L 579.187711 175.197979 
L 578.737733 175.499676 
L 578.785746 176.497597 
L 578.714616 179.824 
L 579.134928 183.755204 
L 579.068172 184.148324 
L 575.54349 186.1833 
L 573.120271 188.472649 
L 572.220316 189.076043 
L 571.27275 189.510486 
L 568.445172 191.18595 
L 565.062901 192.796973 
L 565.318241 194.418595 
L 565.953962 197.121297 
L 564.381997 201.445622 
L 564.832212 205.769946 
L 562.981437 207.66843 
L 560.411914 208.322006 
L 558.636694 208.791763 
L 556.551595 210.09427 
L 555.677461 212.314869 
L 551.898748 214.418595 
L 553.771235 218.742919 
L 550.41036 220.489281 
L 547.904108 221.337514 
L 545.507324 220.645622 
L 545.561098 223.067243 
L 543.736623 226.227326 
L 540.525121 227.391568 
L 539.678304 227.84676 
L 538.416839 229.121297 
L 536.738368 231.40329 
L 536.478264 231.715892 
L 535.254416 234.598775 
L 535.021395 236.040216 
L 534.796697 236.688865 
L 533.523405 240.364541 
L 533.352206 242.835583 
L 532.117599 244.688865 
L 530.031539 245.732667 
L 528.596683 249.013189 
L 527.336119 249.712712 
L 526.293572 250.119412 
L 523.225103 251.240871 
L 521.174669 253.337514 
L 522.276335 257.07747 
L 522.771167 257.661838 
L 522.119867 257.975195 
L 521.703417 258.069793 
L 517.339858 258.344626 
L 515.865011 261.986162 
L 515.605985 263.990117 
L 515.05164 266.310486 
L 513.786624 269.487541 
L 512.826178 270.634811 
L 511.328188 273.878054 
L 509.705366 274.959135 
L 507.458381 275.824 
L 506.012046 276.599396 
L 503.366311 277.384976 
L 499.838976 278.642819 
L 499.302658 278.995171 
L 497.653356 279.283459 
L 497.804669 282.166342 
L 497.471782 283.607784 
L 497.061618 283.762224 
L 496.844419 283.829544 
L 492.82623 285.074965 
L 490.822168 285.611739 
L 488.662707 286.512181 
L 486.591645 287.932108 
L 486.087059 290.699676 
L 484.620605 292.256432 
L 482.686067 293.457634 
L 480.678527 294.532393 
L 480.432147 292.256432 
L 478.372411 289.878054 
L 476.225644 290.916501 
L 472.676696 291.094674 
L 471.398661 291.20457 
L 467.324735 291.715892 
L 466.649505 291.62744 
L 465.275854 292.256432 
L 464.099896 295.860036 
L 460.917891 294.164223 
L 458.08524 294.090994 
L 456.443503 293.265441 
L 453.547816 294.880595 
L 450.5916 294.752587 
L 448.311334 294.45939 
L 446.103212 293.878054 
L 442.82755 293.609847 
L 441.436855 293.311773 
L 439.913601 292.256432 
L 439.04294 288.809507 
L 437.138948 287.932108 
L 435.160235 286.885901 
L 432.451188 283.607784 
L 432.178445 283.401864 
L 431.920854 283.367544 
L 427.961283 282.057554 
L 425.849941 281.501062 
L 423.789404 280.634811 
L 420.493444 279.283459 
L 419.927399 278.675351 
L 418.91543 278.138785 
L 416.563821 275.852591 
L 414.927374 274.959135 
L 412.886256 273.573672 
L 410.404941 272.046835 
L 409.198077 271.313136 
L 407.093059 274.959135 
L 404.596409 279.283459 
L 402.099759 283.607784 
L 399.603109 287.932108 
L 397.106459 292.256432 
L 394.60981 296.580757 
L 394.212615 297.268717 
L 395.962162 300.905081 
L 396.632957 301.725212 
L 398.383815 303.117526 
L 399.930795 304.661838 
L 400.455624 305.229405 
L 402.526016 308.81543 
L 403.127791 309.55373 
L 403.148352 311.369946 
L 403.447157 313.878054 
L 404.154928 314.642721 
L 405.912824 316.158152 
L 407.5039 317.490781 
L 408.445411 318.202378 
L 409.724663 322.292955 
L 409.781758 322.526703 
L 410.065261 323.350384 
L 411.245902 326.851027 
L 411.787464 327.368728 
L 413.029537 328.484661 
L 415.120748 330.243958 
L 416.153934 331.175351 
L 416.422645 334.361696 
L 416.512237 335.499676 
L 416.625722 336.285916 
L 417.391739 339.824 
L 418.510665 341.669748 
L 419.403273 344.148324 
L 420.607533 346.686515 
L 421.890276 348.472649 
L 422.281012 352.436613 
L 422.375582 352.796973 
L 424.684837 356.921713 
L 424.769339 357.121297 
L 424.827881 357.568641 
L 424.662076 361.445622 
L 425.841486 363.566988 
L 428.421581 365.769946 
L 429.235477 366.33707 
L 431.076028 370.09427 
L 430.900398 372.101992 
L 430.269506 374.418595 
L 430.6329 376.271876 
L 431.134872 378.742919 
L 431.639952 379.469696 
L 433.307882 380.905081 
L 434.968876 382.352479 
L 435.464079 383.067243 
L 434.889093 383.64382 
L 433.364624 387.391568 
L 434.70094 391.465206 
L 435.161455 391.715892 
L 434.947838 392.394217 
L 434.111598 396.040216 
L 433.619963 398.742919 
L 433.324982 400.364541 
L 433.557547 402.09427 
L 435.055537 404.688865 
L 436.171686 406.215097 
L 436.494782 409.013189 
L 435.503212 410.65345 
L 432.83976 413.337514 
L 435.42853 416.150929 
L 438.899693 416.536329 
L 440.054148 416.787772 
L 440.944693 417.661838 
L 439.833556 418.153827 
L 439.11431 418.415619 
L 435.164634 418.715665 
L 434.153521 421.986162 
L 435.115801 425.341241 
L 439.09557 425.524246 
L 439.846726 425.795686 
L 441.040043 426.310486 
L 440.36808 427.728298 
L 439.665629 430.634811 
L 440.733814 432.907853 
L 443.846066 434.959135 
L 440.888289 437.277976 
L 439.826912 439.283459 
L 438.973356 442.609863 
L 438.967763 443.607784 
L 436.71997 447.355532 
L 436.519221 447.932108 
L 436.636748 448.652829 
L 439.108921 451.493316 
L 439.849104 447.932108 
L 440.852106 445.863953 
L 442.398248 447.322267 
L 443.026983 447.932108 
L 442.41728 448.574913 
L 439.776474 452.256432 
L 439.666537 452.459135 
L 440.399717 456.580757 
L 439.666537 460.702378 
L 439.75471 460.905081 
L 439.672292 461.117753 
L 437.658105 465.229405 
L 438.003961 466.876767 
L 438.900377 469.55373 
L 439.143801 470.256432 
L 440.689281 473.878054 
L 438.70905 476.746665 
L 438.67888 478.202378 
L 438.955897 479.230539 
L 440.730354 482.526703 
L 438.843217 485.627698 
L 437.959048 486.851027 
L 438.71729 488.292468 
L 439.578879 491.175351 
L 439.815107 495.039641 
L 440.075117 495.499676 
L 442.845084 498.440216 
L 443.829477 499.824 
L 447.039456 499.824 
L 452.032755 499.824 
L 457.026055 499.824 
L 462.019355 499.824 
L 467.012654 499.824 
L 471.885633 499.824 
L 471.914334 499.665309 
L 472.283359 499.34352 
L 475.33482 496.941117 
L 476.427731 495.499676 
L 475.317836 494.087651 
L 473.192886 493.231178 
L 471.465634 492.111213 
L 471.376364 491.175351 
L 471.122992 489.646017 
L 472.659838 486.851027 
L 471.915167 482.683951 
L 471.919114 482.526703 
L 471.887066 482.320782 
L 471.859092 478.202378 
L 471.547385 474.672318 
L 471.577957 473.878054 
L 471.781255 473.488865 
L 472.283359 473.397574 
L 475.388115 471.08748 
L 476.247835 469.55373 
L 475.640317 467.583152 
L 473.095401 465.229405 
L 472.694685 464.036488 
L 470.193318 460.905081 
L 472.287266 457.068005 
L 472.45479 456.580757 
L 474.620093 452.45993 
L 474.618056 452.256432 
L 475.168377 451.103279 
L 476.556299 447.932108 
L 473.590906 445.186891 
L 470.341521 443.607784 
L 470.068898 442.638539 
L 470.148942 439.283459 
L 470.466923 436.61778 
L 470.388627 434.959135 
L 470.322167 433.551216 
L 469.980699 430.634811 
L 470.724488 428.415246 
L 471.760382 426.310486 
L 470.780746 424.108284 
L 468.569007 421.986162 
L 470.627595 419.598775 
L 471.099762 417.661838 
L 469.982238 416.842693 
L 467.997248 415.042881 
L 466.377143 414.438251 
L 465.405615 413.337514 
L 464.95659 409.776305 
L 464.781135 409.013189 
L 464.769901 408.573427 
L 464.255937 404.688865 
L 463.267679 402.526703 
L 462.784457 400.364541 
L 463.385942 398.407215 
L 464.277194 396.040216 
L 462.988204 394.36212 
L 461.046084 391.715892 
L 461.76969 387.824 
L 461.8216 387.391568 
L 461.889658 387.166927 
L 462.036573 383.067243 
L 460.403166 381.54224 
L 457.300077 379.21754 
L 456.847723 379.051799 
L 456.624808 378.742919 
L 455.902562 376.796973 
L 454.968815 374.418595 
L 454.752683 374.031866 
L 453.335355 372.350439 
L 451.727043 370.623779 
L 451.502493 370.09427 
L 451.747424 369.600062 
L 453.958742 365.769946 
L 451.706091 362.011421 
L 451.281076 361.445622 
L 448.617338 358.712649 
L 448.301203 357.121297 
L 446.392176 353.918094 
L 444.517067 352.796973 
L 445.840085 350.719601 
L 446.272511 348.472649 
L 446.137052 345.711333 
L 445.780641 344.148324 
L 443.417772 341.772615 
L 440.304307 339.824 
L 440.381723 338.382559 
L 437.409521 335.499676 
L 437.121258 335.381201 
L 435.378632 331.175351 
L 435.584239 329.394747 
L 435.646293 326.851027 
L 436.234283 325.433216 
L 437.928874 325.33372 
L 440.564628 324.284944 
L 443.690291 324.003301 
L 446.466454 326.851027 
L 446.873012 327.139315 
L 447.351537 327.391568 
L 450.942265 328.739812 
L 453.547117 331.175351 
L 454.135197 331.858139 
L 456.949235 335.499676 
L 457.001578 335.542071 
L 457.060256 335.558913 
L 460.874275 337.483012 
L 464.447603 339.824 
L 464.468898 339.905591 
L 466.420229 344.148324 
L 466.807048 344.504445 
L 467.177527 344.433893 
L 471.237754 345.478886 
L 473.553173 346.828187 
L 475.138543 347.37117 
L 476.677105 348.472649 
L 476.187842 351.391568 
L 475.917372 352.796973 
L 476.733217 353.257762 
L 478.201344 354.879055 
L 479.961945 356.31409 
L 480.588188 357.121297 
L 483.718632 358.455965 
L 485.860988 359.4973 
L 487.831825 359.980355 
L 491.746906 361.445622 
L 491.889986 361.600062 
L 492.145596 361.73391 
L 496.140235 362.887063 
L 498.060735 365.769946 
L 499.082297 366.439912 
L 499.959515 366.619367 
L 503.504782 367.428591 
L 505.17573 367.005467 
L 506.126835 365.769946 
L 507.486512 362.359211 
L 511.747707 361.800074 
L 512.118794 361.73391 
L 516.0672 362.967143 
L 519.4423 365.769946 
L 522.427425 362.291685 
L 522.820121 361.445622 
L 522.741445 360.05566 
L 523.219283 357.121297 
L 523.486873 355.478054 
L 524.974093 352.796973 
L 525.972 351.133771 
L 529.201931 348.865769 
L 529.537449 348.660663 
L 534.038099 349.137929 
L 535.531821 350.394571 
L 535.420859 348.472649 
L 536.419519 345.013189 
L 536.596701 344.148324 
L 536.857203 344.041551 
L 537.091032 343.850095 
L 540.406816 341.541011 
L 542.22423 339.824 
L 543.727894 338.644639 
L 546.425323 336.331277 
L 547.100499 335.837514 
L 547.321556 335.499676 
L 550.264037 332.668273 
L 551.307436 331.175351 
L 552.61748 328.095908 
L 553.875262 326.851027 
L 555.499685 324.439385 
L 557.196517 322.526703 
L 558.507527 321.000471 
L 561.01152 318.202378 
L 558.608494 315.229405 
L 557.248712 313.878054 
L 558.902337 313.035653 
L 559.868822 313.046453 
L 563.185256 311.805237 
L 566.04643 310.995171 
L 567.992537 311.483044 
L 570.498789 309.55373 
L 571.013723 308.067243 
L 572.288055 305.229405 
L 572.397557 301.815465 
L 572.459393 300.905081 
L 575.081925 297.816278 
L 575.643481 296.580757 
L 578.017546 294.252274 
L 581.026329 292.256432 
L 581.616934 291.837949 
L 582.739716 290.7302 
L 584.721371 288.566342 
L 585.432182 287.932108 
L 587.565174 284.843305 
L 588.48231 283.607784 
L 588.331341 281.045221 
L 588.008829 279.283459 
L 589.043349 278.754931 
L 590.234403 277.749022 
L 591.637091 279.283459 
L 593.63622 280.505551 
L 594.669638 279.8513 
L 595.925036 279.283459 
L 595.079441 278.005818 
L 593.803302 274.959135 
L 595.62913 272.864541 
L 598.003548 270.634811 
L 598.809484 269.724427 
L 600.646893 266.310486 
L 601.346284 265.469646 
L 602.644607 264.902567 
L 605.200717 263.497071 
L 605.656886 261.986162 
L 606.522419 258.185998 
L 606.237597 257.661838 
L 606.632994 257.329198 
L 607.65726 256.220396 
L 609.698546 253.990242 
L 614.111185 253.69052 
L 614.484258 253.630688 
L 614.706624 253.337514 
L 614.939156 252.256432 
L 615.14721 249.013189 
L 616.001919 247.610706 
L 617.515826 244.688865 
L 618.363614 243.052634 
L 620.367478 242.854303 
L 622.71718 241.944582 
L 624.118911 240.364541 
L 625.867288 238.752081 
L 624.301592 236.040216 
L 621.804943 231.715892 
L 619.308293 227.391568 
L 616.811643 223.067243 
L 614.314993 218.742919 
L 604.328394 201.445622 
L 601.831744 197.121297 
L 599.335094 192.796973 
L 596.838444 188.472649 
L 594.341795 184.148324 
L 591.845145 179.824 
L 589.348495 175.499676 
z
M 444.471473 287.808556 
L 443.918643 287.932108 
L 444.426683 288.133239 
L 444.631972 288.086548 
L 444.977006 287.932108 
L 444.595926 287.840101 
z
M 505.294618 283.607784 
L 506.126835 282.166342 
L 507.383011 282.873465 
L 509.099037 283.607784 
L 507.217325 284.055128 
L 506.613361 284.206536 
z
" clip-path="url(#p409f4397c3)" style="fill: #287c8e"/>
    <path d="M 658.980864 296.106476 
L 658.206713 296.580757 
L 656.363832 300.222293 
L 656.069309 300.905081 
L 653.141569 303.289819 
L 651.088564 305.229405 
L 650.034606 306.557049 
L 647.679313 307.981248 
L 646.365481 308.850588 
L 645.211035 309.55373 
L 643.609018 312.724901 
L 643.442574 313.878054 
L 640.905329 316.690623 
L 638.138957 318.202378 
L 637.372288 319.219866 
L 634.880617 322.526703 
L 634.498752 322.891405 
L 631.85639 326.851027 
L 631.819913 326.900167 
L 631.7348 326.949307 
L 628.336357 329.51512 
L 627.081367 331.175351 
L 626.408141 334.824 
L 625.906582 335.499676 
L 622.965002 337.508958 
L 621.544875 339.824 
L 620.58634 342.037642 
L 619.73701 344.148324 
L 618.116199 346.407881 
L 616.522557 348.472649 
L 615.548632 350.609374 
L 614.314993 352.796973 
L 612.637854 354.216408 
L 609.792759 356.305387 
L 609.088362 356.717155 
L 608.970053 357.121297 
L 608.489477 358.562739 
L 607.959884 361.445622 
L 607.263052 362.204275 
L 605.715422 363.367544 
L 603.642501 364.581945 
L 603.345461 365.769946 
L 601.141181 368.898181 
L 600.430746 370.09427 
L 598.758944 373.420674 
L 597.774688 374.418595 
L 596.351293 377.899148 
L 595.920136 378.742919 
L 595.358948 381.305481 
L 594.980472 383.067243 
L 594.611041 383.533592 
L 592.053199 387.031207 
L 591.821591 387.350772 
L 591.803184 387.391568 
L 589.348495 391.715892 
L 588.269696 396.040216 
L 587.383539 396.961137 
L 585.256763 398.802979 
L 584.080141 399.888132 
L 583.84407 400.364541 
L 582.646961 403.323289 
L 582.187774 404.688865 
L 582.170627 405.229405 
L 582.050596 409.013189 
L 581.015083 411.876593 
L 580.544519 413.337514 
L 577.985538 415.277915 
L 576.908046 417.661838 
L 575.901023 420.316078 
L 573.651168 421.986162 
L 573.120271 424.148324 
L 572.739204 426.310486 
L 571.300424 429.644905 
L 570.959709 430.634811 
L 569.809496 434.207079 
L 569.512099 434.959135 
L 569.547479 435.257364 
L 569.279271 439.283459 
L 568.419789 441.952795 
L 567.098939 443.607784 
L 565.72078 445.926624 
L 565.32733 447.932108 
L 564.457653 452.125392 
L 564.463854 452.256432 
L 564.436272 452.350439 
L 564.265874 456.580757 
L 563.413148 459.226985 
L 562.472794 460.905081 
L 562.472794 464.211917 
L 562.314878 465.229405 
L 562.229713 465.825864 
L 561.444762 469.55373 
L 560.869761 472.119007 
L 560.649891 473.878054 
L 561.15462 475.14371 
L 562.228024 478.202378 
L 560.565979 480.241491 
L 559.677425 482.526703 
L 559.930139 485.913222 
L 560.305834 486.851027 
L 560.433806 488.661209 
L 560.049575 491.175351 
L 559.12863 495.049225 
L 559.104987 495.499676 
L 556.777259 499.62518 
L 556.730973 499.824 
L 556.892047 499.824 
L 561.885347 499.824 
L 566.878647 499.824 
L 571.871946 499.824 
L 576.865246 499.824 
L 581.858546 499.824 
L 586.851845 499.824 
L 591.845145 499.824 
L 596.838444 499.824 
L 601.831744 499.824 
L 606.825044 499.824 
L 611.818343 499.824 
L 616.811643 499.824 
L 621.804943 499.824 
L 626.798242 499.824 
L 631.791542 499.824 
L 636.784841 499.824 
L 641.778141 499.824 
L 646.771441 499.824 
L 651.76474 499.824 
L 656.75804 499.824 
L 661.75134 499.824 
L 666.744639 499.824 
L 671.737939 499.824 
L 676.731238 499.824 
L 681.724538 499.824 
L 686.717838 499.824 
L 691.711137 499.824 
L 696.703938 499.824 
L 701.697237 499.824 
L 706.690537 499.824 
L 711.683836 499.824 
L 716.677136 499.824 
L 721.670436 499.824 
L 726.663735 499.824 
L 731.657035 499.824 
L 736.650335 499.824 
L 741.643634 499.824 
L 746.636934 499.824 
L 751.630233 499.824 
L 756.623533 499.824 
L 761.616833 499.824 
L 766.610132 499.824 
L 771.603432 499.824 
L 776.596732 499.824 
L 734.154184 426.310486 
L 731.657534 421.986162 
L 729.160884 417.661838 
L 726.664235 413.337514 
L 724.167585 409.013189 
L 721.670935 404.688865 
L 719.174285 400.364541 
L 716.677635 396.040216 
L 714.180986 391.715892 
L 711.684336 387.391568 
L 709.187686 383.067243 
L 706.691036 378.742919 
L 704.194386 374.418595 
L 701.697737 370.09427 
L 699.201087 365.769946 
L 689.214487 348.472649 
L 686.717838 344.148324 
L 684.221188 339.824 
L 681.724538 335.499676 
L 679.227888 331.175351 
L 676.731238 326.851027 
L 674.234589 322.526703 
L 671.737939 318.202378 
L 669.241289 313.878054 
L 666.744639 309.55373 
L 664.247989 305.229405 
L 661.75134 300.905081 
L 659.25469 296.580757 
z
M 625.867288 238.752081 
L 624.118911 240.364541 
L 622.71718 241.944582 
L 620.367478 242.854303 
L 618.363614 243.052634 
L 617.515826 244.688865 
L 616.001919 247.610706 
L 615.14721 249.013189 
L 614.939156 252.256432 
L 614.706624 253.337514 
L 614.484258 253.630688 
L 614.111185 253.69052 
L 609.698546 253.990242 
L 607.65726 256.220396 
L 606.632994 257.329198 
L 606.237597 257.661838 
L 606.522419 258.185998 
L 605.656886 261.986162 
L 605.200717 263.497071 
L 602.644607 264.902567 
L 601.346284 265.469646 
L 600.646893 266.310486 
L 598.809484 269.724427 
L 598.003548 270.634811 
L 595.62913 272.864541 
L 593.803302 274.959135 
L 595.079441 278.005818 
L 595.925036 279.283459 
L 594.669638 279.8513 
L 593.63622 280.505551 
L 591.637091 279.283459 
L 590.234403 277.749022 
L 589.043349 278.754931 
L 588.008829 279.283459 
L 588.331341 281.045221 
L 588.48231 283.607784 
L 587.565174 284.843305 
L 585.432182 287.932108 
L 584.721371 288.566342 
L 582.739716 290.7302 
L 581.616934 291.837949 
L 581.026329 292.256432 
L 578.017546 294.252274 
L 575.643481 296.580757 
L 575.081925 297.816278 
L 572.459393 300.905081 
L 572.397557 301.815465 
L 572.288055 305.229405 
L 571.013723 308.067243 
L 570.498789 309.55373 
L 567.992537 311.483044 
L 566.04643 310.995171 
L 563.185256 311.805237 
L 559.868822 313.046453 
L 558.902337 313.035653 
L 557.248712 313.878054 
L 558.608494 315.229405 
L 561.01152 318.202378 
L 558.507527 321.000471 
L 557.196517 322.526703 
L 555.499685 324.439385 
L 553.875262 326.851027 
L 552.61748 328.095908 
L 551.307436 331.175351 
L 550.264037 332.668273 
L 547.321556 335.499676 
L 547.100499 335.837514 
L 546.425323 336.331277 
L 543.727894 338.644639 
L 542.22423 339.824 
L 540.406816 341.541011 
L 537.091032 343.850095 
L 536.857203 344.041551 
L 536.596701 344.148324 
L 536.419519 345.013189 
L 535.420859 348.472649 
L 535.531821 350.394571 
L 534.038099 349.137929 
L 529.537449 348.660663 
L 529.201931 348.865769 
L 525.972 351.133771 
L 524.974093 352.796973 
L 523.486873 355.478054 
L 523.219283 357.121297 
L 522.741445 360.05566 
L 522.820121 361.445622 
L 522.427425 362.291685 
L 519.4423 365.769946 
L 516.0672 362.967143 
L 512.118794 361.73391 
L 511.747707 361.800074 
L 507.486512 362.359211 
L 506.126835 365.769946 
L 505.17573 367.005467 
L 503.504782 367.428591 
L 499.959515 366.619367 
L 499.082297 366.439912 
L 498.060735 365.769946 
L 496.140235 362.887063 
L 492.145596 361.73391 
L 491.889986 361.600062 
L 491.746906 361.445622 
L 487.831825 359.980355 
L 485.860988 359.4973 
L 483.718632 358.455965 
L 480.588188 357.121297 
L 479.961945 356.31409 
L 478.201344 354.879055 
L 476.733217 353.257762 
L 475.917372 352.796973 
L 476.187842 351.391568 
L 476.677105 348.472649 
L 475.138543 347.37117 
L 473.553173 346.828187 
L 471.237754 345.478886 
L 467.177527 344.433893 
L 466.807048 344.504445 
L 466.420229 344.148324 
L 464.468898 339.905591 
L 464.447603 339.824 
L 460.874275 337.483012 
L 457.060256 335.558913 
L 457.001578 335.542071 
L 456.949235 335.499676 
L 454.135197 331.858139 
L 453.547117 331.175351 
L 450.942265 328.739812 
L 447.351537 327.391568 
L 446.873012 327.139315 
L 446.466454 326.851027 
L 443.690291 324.003301 
L 440.564628 324.284944 
L 437.928874 325.33372 
L 436.234283 325.433216 
L 435.646293 326.851027 
L 435.584239 329.394747 
L 435.378632 331.175351 
L 437.121258 335.381201 
L 437.409521 335.499676 
L 440.381723 338.382559 
L 440.304307 339.824 
L 443.417772 341.772615 
L 445.780641 344.148324 
L 446.137052 345.711333 
L 446.272511 348.472649 
L 445.840085 350.719601 
L 444.517067 352.796973 
L 446.392176 353.918094 
L 448.301203 357.121297 
L 448.617338 358.712649 
L 451.281076 361.445622 
L 451.706091 362.011421 
L 453.958742 365.769946 
L 451.747424 369.600062 
L 451.502493 370.09427 
L 451.727043 370.623779 
L 453.335355 372.350439 
L 454.752683 374.031866 
L 454.968815 374.418595 
L 455.902562 376.796973 
L 456.624808 378.742919 
L 456.847723 379.051799 
L 457.300077 379.21754 
L 460.403166 381.54224 
L 462.036573 383.067243 
L 461.889658 387.166927 
L 461.8216 387.391568 
L 461.76969 387.824 
L 461.046084 391.715892 
L 462.988204 394.36212 
L 464.277194 396.040216 
L 463.385942 398.407215 
L 462.784457 400.364541 
L 463.267679 402.526703 
L 464.255937 404.688865 
L 464.769901 408.573427 
L 464.781135 409.013189 
L 464.95659 409.776305 
L 465.405615 413.337514 
L 466.377143 414.438251 
L 467.997248 415.042881 
L 469.982238 416.842693 
L 471.099762 417.661838 
L 470.627595 419.598775 
L 468.569007 421.986162 
L 470.780746 424.108284 
L 471.760382 426.310486 
L 470.724488 428.415246 
L 469.980699 430.634811 
L 470.322167 433.551216 
L 470.388627 434.959135 
L 470.466923 436.61778 
L 470.148942 439.283459 
L 470.068898 442.638539 
L 470.341521 443.607784 
L 473.590906 445.186891 
L 476.556299 447.932108 
L 475.168377 451.103279 
L 474.618056 452.256432 
L 474.620093 452.45993 
L 472.45479 456.580757 
L 472.287266 457.068005 
L 470.193318 460.905081 
L 472.694685 464.036488 
L 473.095401 465.229405 
L 475.640317 467.583152 
L 476.247835 469.55373 
L 475.388115 471.08748 
L 472.283359 473.397574 
L 471.781255 473.488865 
L 471.577957 473.878054 
L 471.547385 474.672318 
L 471.859092 478.202378 
L 471.887066 482.320782 
L 471.919114 482.526703 
L 471.915167 482.683951 
L 472.659838 486.851027 
L 471.122992 489.646017 
L 471.376364 491.175351 
L 471.465634 492.111213 
L 473.192886 493.231178 
L 475.317836 494.087651 
L 476.427731 495.499676 
L 475.33482 496.941117 
L 472.283359 499.34352 
L 471.914334 499.665309 
L 471.885633 499.824 
L 472.005954 499.824 
L 476.999253 499.824 
L 481.992553 499.824 
L 486.985853 499.824 
L 491.979152 499.824 
L 496.972452 499.824 
L 497.350732 499.824 
L 497.971112 498.09427 
L 498.748914 495.499676 
L 496.267752 492.395927 
L 494.672906 491.175351 
L 496.289774 489.992919 
L 496.426965 486.851027 
L 496.443501 483.442873 
L 496.187342 482.526703 
L 496.054566 480.936878 
L 495.897735 478.202378 
L 496.759971 474.246082 
L 496.507959 473.878054 
L 496.831796 473.63443 
L 496.294014 469.55373 
L 496.648212 465.791006 
L 496.625695 465.229405 
L 493.651908 462.332108 
L 492.860323 460.905081 
L 493.255218 458.790967 
L 494.609211 456.580757 
L 493.635583 453.711734 
L 493.302879 452.256432 
L 492.114106 448.165855 
L 492.056568 447.932108 
L 492.04573 447.816793 
L 492.33162 443.607784 
L 491.811109 439.57452 
L 491.649406 439.283459 
L 491.44956 438.366179 
L 490.359704 434.959135 
L 489.956319 434.13846 
L 489.558819 430.634811 
L 489.200925 426.798192 
L 488.853095 426.310486 
L 489.066394 425.589766 
L 489.433549 421.986162 
L 488.286191 419.73391 
L 486.967629 417.661838 
L 487.502401 414.232201 
L 487.493646 413.337514 
L 487.30916 412.777529 
L 486.153636 411.896072 
L 484.000728 409.859253 
L 483.46201 409.013189 
L 483.321938 406.991427 
L 484.722223 404.688865 
L 483.47607 402.119339 
L 483.157656 400.364541 
L 483.841923 399.243419 
L 485.460122 398.682859 
L 488.35901 398.418595 
L 490.237791 399.056342 
L 492.750844 400.364541 
L 494.040606 401.118322 
L 495.279808 401.75712 
L 497.981199 402.941663 
L 499.825766 404.688865 
L 501.151627 406.098971 
L 502.596219 409.013189 
L 503.858636 410.058941 
L 505.342173 410.536999 
L 508.08337 411.390136 
L 510.320877 413.337514 
L 510.758301 415.405669 
L 512.451681 417.661838 
L 513.660585 419.027414 
L 514.936152 418.505608 
L 518.593439 419.132108 
L 520.437059 419.384811 
L 523.61062 419.090745 
L 525.298079 419.155695 
L 528.88615 418.601908 
L 529.859356 418.407411 
L 531.349399 417.661838 
L 530.855557 415.190795 
L 530.427559 413.337514 
L 531.518487 412.632461 
L 532.885799 411.674312 
L 535.437785 410.772236 
L 536.867897 409.013189 
L 538.11516 406.760937 
L 539.653275 404.688865 
L 541.340626 403.698959 
L 543.565774 400.364541 
L 544.131393 399.88406 
L 544.97821 399.378291 
L 548.431179 398.682859 
L 549.194044 396.040216 
L 550.532161 393.673218 
L 552.154814 391.715892 
L 552.210829 387.932108 
L 552.759662 387.391568 
L 556.071231 385.969872 
L 557.572952 383.067243 
L 558.780817 382.014364 
L 561.151038 378.742919 
L 561.434145 377.961415 
L 563.079397 374.418595 
L 563.183605 372.342919 
L 563.133672 370.09427 
L 565.630322 367.932108 
L 568.910803 365.769946 
L 569.18687 365.443582 
L 571.871946 361.445622 
L 575.252503 358.652269 
L 575.806061 357.121297 
L 576.557966 353.329198 
L 576.32543 352.796973 
L 576.680309 352.476653 
L 579.08449 348.953129 
L 579.386862 348.515892 
L 579.414457 348.472649 
L 582.535931 345.321591 
L 583.939087 344.148324 
L 585.664119 342.091121 
L 587.351175 339.824 
L 588.303386 338.013818 
L 589.479898 335.499676 
L 590.754375 333.610408 
L 593.159171 331.175351 
L 593.929504 330.461243 
L 596.384508 327.637268 
L 596.926046 327.002758 
L 596.960232 326.851027 
L 599.729302 323.209491 
L 600.615427 322.526703 
L 601.992818 318.481367 
L 602.143825 318.202378 
L 602.299866 317.391568 
L 603.555621 313.878054 
L 603.934982 313.196645 
L 605.139805 312.472649 
L 607.723838 311.110486 
L 609.889114 309.55373 
L 611.009904 308.153472 
L 613.350378 305.229405 
L 613.838105 304.403411 
L 615.99878 300.905081 
L 616.520367 300.400577 
L 618.059968 298.742919 
L 619.623186 297.126167 
L 620.579314 296.580757 
L 623.403674 295.025517 
L 624.842533 292.256432 
L 625.947934 290.783655 
L 627.851516 287.932108 
L 628.512044 286.576176 
L 631.147245 283.607784 
L 631.45109 283.018103 
L 632.238703 282.833278 
L 635.386718 281.186162 
L 636.879055 279.283459 
L 636.879055 275.122317 
L 638.033166 274.959135 
L 641.564142 274.588479 
L 643.912958 270.634811 
L 644.067886 270.515354 
L 644.089854 270.31449 
L 634.288192 253.337514 
L 631.791542 249.013189 
L 629.294892 244.688865 
L 626.798242 240.364541 
z
" clip-path="url(#p409f4397c3)" style="fill: #20a486"/>
    <path d="M 644.089854 270.31449 
L 644.067886 270.515354 
L 643.912958 270.634811 
L 641.564142 274.588479 
L 638.033166 274.959135 
L 636.879055 275.122317 
L 636.879055 279.283459 
L 635.386718 281.186162 
L 632.238703 282.833278 
L 631.45109 283.018103 
L 631.147245 283.607784 
L 628.512044 286.576176 
L 627.851516 287.932108 
L 625.947934 290.783655 
L 624.842533 292.256432 
L 623.403674 295.025517 
L 620.579314 296.580757 
L 619.623186 297.126167 
L 618.059968 298.742919 
L 616.520367 300.400577 
L 615.99878 300.905081 
L 613.838105 304.403411 
L 613.350378 305.229405 
L 611.009904 308.153472 
L 609.889114 309.55373 
L 607.723838 311.110486 
L 605.139805 312.472649 
L 603.934982 313.196645 
L 603.555621 313.878054 
L 602.299866 317.391568 
L 602.143825 318.202378 
L 601.992818 318.481367 
L 600.615427 322.526703 
L 599.729302 323.209491 
L 596.960232 326.851027 
L 596.926046 327.002758 
L 596.384508 327.637268 
L 593.929504 330.461243 
L 593.159171 331.175351 
L 590.754375 333.610408 
L 589.479898 335.499676 
L 588.303386 338.013818 
L 587.351175 339.824 
L 585.664119 342.091121 
L 583.939087 344.148324 
L 582.535931 345.321591 
L 579.414457 348.472649 
L 579.386862 348.515892 
L 579.08449 348.953129 
L 576.680309 352.476653 
L 576.32543 352.796973 
L 576.557966 353.329198 
L 575.806061 357.121297 
L 575.252503 358.652269 
L 571.871946 361.445622 
L 569.18687 365.443582 
L 568.910803 365.769946 
L 565.630322 367.932108 
L 563.133672 370.09427 
L 563.183605 372.342919 
L 563.079397 374.418595 
L 561.434145 377.961415 
L 561.151038 378.742919 
L 558.780817 382.014364 
L 557.572952 383.067243 
L 556.071231 385.969872 
L 552.759662 387.391568 
L 552.210829 387.932108 
L 552.154814 391.715892 
L 550.532161 393.673218 
L 549.194044 396.040216 
L 548.431179 398.682859 
L 544.97821 399.378291 
L 544.131393 399.88406 
L 543.565774 400.364541 
L 541.340626 403.698959 
L 539.653275 404.688865 
L 538.11516 406.760937 
L 536.867897 409.013189 
L 535.437785 410.772236 
L 532.885799 411.674312 
L 531.518487 412.632461 
L 530.427559 413.337514 
L 530.855557 415.190795 
L 531.349399 417.661838 
L 529.859356 418.407411 
L 528.88615 418.601908 
L 525.298079 419.155695 
L 523.61062 419.090745 
L 520.437059 419.384811 
L 518.593439 419.132108 
L 514.936152 418.505608 
L 513.660585 419.027414 
L 512.451681 417.661838 
L 510.758301 415.405669 
L 510.320877 413.337514 
L 508.08337 411.390136 
L 505.342173 410.536999 
L 503.858636 410.058941 
L 502.596219 409.013189 
L 501.151627 406.098971 
L 499.825766 404.688865 
L 497.981199 402.941663 
L 495.279808 401.75712 
L 494.040606 401.118322 
L 492.750844 400.364541 
L 490.237791 399.056342 
L 488.35901 398.418595 
L 485.460122 398.682859 
L 483.841923 399.243419 
L 483.157656 400.364541 
L 483.47607 402.119339 
L 484.722223 404.688865 
L 483.321938 406.991427 
L 483.46201 409.013189 
L 484.000728 409.859253 
L 486.153636 411.896072 
L 487.30916 412.777529 
L 487.493646 413.337514 
L 487.502401 414.232201 
L 486.967629 417.661838 
L 488.286191 419.73391 
L 489.433549 421.986162 
L 489.066394 425.589766 
L 488.853095 426.310486 
L 489.200925 426.798192 
L 489.558819 430.634811 
L 489.956319 434.13846 
L 490.359704 434.959135 
L 491.44956 438.366179 
L 491.649406 439.283459 
L 491.811109 439.57452 
L 492.33162 443.607784 
L 492.04573 447.816793 
L 492.056568 447.932108 
L 492.114106 448.165855 
L 493.302879 452.256432 
L 493.635583 453.711734 
L 494.609211 456.580757 
L 493.255218 458.790967 
L 492.860323 460.905081 
L 493.651908 462.332108 
L 496.625695 465.229405 
L 496.648212 465.791006 
L 496.294014 469.55373 
L 496.831796 473.63443 
L 496.507959 473.878054 
L 496.759971 474.246082 
L 495.897735 478.202378 
L 496.054566 480.936878 
L 496.187342 482.526703 
L 496.443501 483.442873 
L 496.426965 486.851027 
L 496.289774 489.992919 
L 494.672906 491.175351 
L 496.267752 492.395927 
L 498.748914 495.499676 
L 497.971112 498.09427 
L 497.350732 499.824 
L 501.965752 499.824 
L 506.959051 499.824 
L 509.921178 499.824 
L 510.777457 497.789024 
L 511.81062 495.499676 
L 511.595687 491.793112 
L 511.417354 491.175351 
L 511.528391 490.441032 
L 511.780624 486.851027 
L 511.120134 483.968144 
L 510.570557 482.526703 
L 509.955031 479.067243 
L 509.848032 478.202378 
L 509.848032 477.522842 
L 510.637151 473.878054 
L 509.368099 469.70546 
L 509.322546 469.55373 
L 509.357793 469.384148 
L 511.120134 466.670847 
L 512.003652 465.318261 
L 512.018634 465.229405 
L 512.091054 464.989165 
L 510.960531 460.905081 
L 512.326848 457.229405 
L 514.092336 456.580757 
L 512.273349 456.024772 
L 509.902862 452.256432 
L 513.200676 450.09427 
L 515.648179 450.179395 
L 517.621826 452.256432 
L 517.583093 455.476674 
L 519.4423 456.580757 
L 521.639352 457.099676 
L 522.652279 457.816278 
L 524.662568 456.580757 
L 526.364829 455.597956 
L 527.130396 452.256432 
L 528.958751 451.442112 
L 529.957387 451.341065 
L 533.549876 450.745524 
L 535.527586 450.341846 
L 538.09469 449.968725 
L 541.108629 447.932108 
L 541.329597 446.923099 
L 542.808382 446.379787 
L 543.659803 447.932108 
L 545.102312 451.055231 
L 544.775953 452.256432 
L 544.862735 453.042673 
L 544.131393 456.580757 
L 545.063657 459.770832 
L 544.996245 460.905081 
L 545.005013 461.937756 
L 543.554681 465.229405 
L 542.816732 466.79619 
L 543.069133 469.55373 
L 543.1745 471.691598 
L 543.380766 473.878054 
L 542.576937 475.029501 
L 541.115345 478.202378 
L 541.273471 481.42048 
L 541.342964 482.526703 
L 541.626074 483.022198 
L 542.643107 486.851027 
L 541.237089 490.006113 
L 541.020993 491.175351 
L 540.897381 492.93298 
L 542.070895 495.499676 
L 541.155588 498.513599 
L 541.25943 499.824 
L 541.912149 499.824 
L 546.905448 499.824 
L 551.898748 499.824 
L 556.730973 499.824 
L 556.777259 499.62518 
L 559.104987 495.499676 
L 559.12863 495.049225 
L 560.049575 491.175351 
L 560.433806 488.661209 
L 560.305834 486.851027 
L 559.930139 485.913222 
L 559.677425 482.526703 
L 560.565979 480.241491 
L 562.228024 478.202378 
L 561.15462 475.14371 
L 560.649891 473.878054 
L 560.869761 472.119007 
L 561.444762 469.55373 
L 562.229713 465.825864 
L 562.314878 465.229405 
L 562.472794 464.211917 
L 562.472794 460.905081 
L 563.413148 459.226985 
L 564.265874 456.580757 
L 564.436272 452.350439 
L 564.463854 452.256432 
L 564.457653 452.125392 
L 565.32733 447.932108 
L 565.72078 445.926624 
L 567.098939 443.607784 
L 568.419789 441.952795 
L 569.279271 439.283459 
L 569.547479 435.257364 
L 569.512099 434.959135 
L 569.809496 434.207079 
L 570.959709 430.634811 
L 571.300424 429.644905 
L 572.739204 426.310486 
L 573.120271 424.148324 
L 573.651168 421.986162 
L 575.901023 420.316078 
L 576.908046 417.661838 
L 577.985538 415.277915 
L 580.544519 413.337514 
L 581.015083 411.876593 
L 582.050596 409.013189 
L 582.170627 405.229405 
L 582.187774 404.688865 
L 582.646961 403.323289 
L 583.84407 400.364541 
L 584.080141 399.888132 
L 585.256763 398.802979 
L 587.383539 396.961137 
L 588.269696 396.040216 
L 589.348495 391.715892 
L 591.803184 387.391568 
L 591.821591 387.350772 
L 592.053199 387.031207 
L 594.611041 383.533592 
L 594.980472 383.067243 
L 595.358948 381.305481 
L 595.920136 378.742919 
L 596.351293 377.899148 
L 597.774688 374.418595 
L 598.758944 373.420674 
L 600.430746 370.09427 
L 601.141181 368.898181 
L 603.345461 365.769946 
L 603.642501 364.581945 
L 605.715422 363.367544 
L 607.263052 362.204275 
L 607.959884 361.445622 
L 608.489477 358.562739 
L 608.970053 357.121297 
L 609.088362 356.717155 
L 609.792759 356.305387 
L 612.637854 354.216408 
L 614.314993 352.796973 
L 615.548632 350.609374 
L 616.522557 348.472649 
L 618.116199 346.407881 
L 619.73701 344.148324 
L 620.58634 342.037642 
L 621.544875 339.824 
L 622.965002 337.508958 
L 625.906582 335.499676 
L 626.408141 334.824 
L 627.081367 331.175351 
L 628.336357 329.51512 
L 631.7348 326.949307 
L 631.819913 326.900167 
L 631.85639 326.851027 
L 634.498752 322.891405 
L 634.880617 322.526703 
L 637.372288 319.219866 
L 638.138957 318.202378 
L 640.905329 316.690623 
L 643.442574 313.878054 
L 643.609018 312.724901 
L 645.211035 309.55373 
L 646.365481 308.850588 
L 647.679313 307.981248 
L 650.034606 306.557049 
L 651.088564 305.229405 
L 653.141569 303.289819 
L 656.069309 300.905081 
L 656.363832 300.222293 
L 658.206713 296.580757 
L 658.980864 296.106476 
L 656.75804 292.256432 
L 654.26139 287.932108 
L 651.76474 283.607784 
L 649.26809 279.283459 
L 646.771441 274.959135 
L 644.274791 270.634811 
z
" clip-path="url(#p409f4397c3)" style="fill: #5ec962"/>
    <path d="M 526.694473 499.824 
L 523.690985 496.789386 
L 523.974262 495.499676 
L 524.222318 495.130261 
L 526.133322 492.559135 
L 525.510107 495.499676 
L 527.01027 499.688865 
L 527.007906 499.824 
L 531.925549 499.824 
L 536.918849 499.824 
L 541.25943 499.824 
L 541.155588 498.513599 
L 542.070895 495.499676 
L 540.897381 492.93298 
L 541.020993 491.175351 
L 541.237089 490.006113 
L 542.643107 486.851027 
L 541.626074 483.022198 
L 541.342964 482.526703 
L 541.273471 481.42048 
L 541.115345 478.202378 
L 542.576937 475.029501 
L 543.380766 473.878054 
L 543.1745 471.691598 
L 543.069133 469.55373 
L 542.816732 466.79619 
L 543.554681 465.229405 
L 545.005013 461.937756 
L 544.996245 460.905081 
L 545.063657 459.770832 
L 544.131393 456.580757 
L 544.862735 453.042673 
L 544.775953 452.256432 
L 545.102312 451.055231 
L 543.659803 447.932108 
L 542.808382 446.379787 
L 541.329597 446.923099 
L 541.108629 447.932108 
L 538.09469 449.968725 
L 535.527586 450.341846 
L 533.549876 450.745524 
L 529.957387 451.341065 
L 528.958751 451.442112 
L 527.130396 452.256432 
L 526.364829 455.597956 
L 524.662568 456.580757 
L 522.652279 457.816278 
L 521.639352 457.099676 
L 519.4423 456.580757 
L 517.583093 455.476674 
L 517.621826 452.256432 
L 515.648179 450.179395 
L 513.200676 450.09427 
L 509.902862 452.256432 
L 512.273349 456.024772 
L 514.092336 456.580757 
L 512.326848 457.229405 
L 510.960531 460.905081 
L 512.091054 464.989165 
L 512.018634 465.229405 
L 512.003652 465.318261 
L 511.120134 466.670847 
L 509.357793 469.384148 
L 509.322546 469.55373 
L 509.368099 469.70546 
L 510.637151 473.878054 
L 509.848032 477.522842 
L 509.848032 478.202378 
L 509.955031 479.067243 
L 510.570557 482.526703 
L 511.120134 483.968144 
L 511.780624 486.851027 
L 511.528391 490.441032 
L 511.417354 491.175351 
L 511.595687 491.793112 
L 511.81062 495.499676 
L 510.777457 497.789024 
L 509.921178 499.824 
L 511.952351 499.824 
L 516.94565 499.824 
L 521.93895 499.824 
z
" clip-path="url(#p409f4397c3)" style="fill: #c8e020"/>
    <path d="M 527.007906 499.824 
L 527.01027 499.688865 
L 525.510107 495.499676 
L 526.133322 492.559135 
L 524.222318 495.130261 
L 523.974262 495.499676 
L 523.690985 496.789386 
L 526.694473 499.824 
L 526.93225 499.824 
z
" clip-path="url(#p409f4397c3)" style="fill: #fde725"/>
   </g>
   <g id="text_1">
    <!-- $\mathcal{X}$ -->
    <g transform="translate(220.024025 524.790498) scale(0.2 -0.2)">
     <defs>
      <path id="STIXNonUnicode-Italic-e244" d="M 2842 3027 
L 2906 2419 
Q 3181 2547 3344 2627 
Q 3507 2707 3724 2832 
Q 3942 2957 4060 3059 
Q 4179 3162 4265 3290 
Q 4352 3418 4352 3552 
Q 4352 3706 4230 3706 
Q 4211 3706 4166 3667 
Q 4122 3629 4019 3629 
Q 3917 3629 3859 3718 
Q 3802 3808 3802 3930 
Q 3802 4096 3923 4198 
Q 4045 4301 4243 4301 
Q 4435 4301 4582 4141 
Q 4730 3981 4730 3693 
Q 4730 3258 4314 2928 
Q 3898 2598 2950 2157 
L 3110 1056 
Q 3200 397 3539 397 
Q 3776 397 3904 608 
L 4026 518 
Q 3776 0 3258 0 
Q 2938 0 2746 237 
Q 2554 474 2477 1094 
L 2374 1920 
Q 1357 1414 992 1132 
Q 627 851 627 595 
Q 627 506 678 506 
Q 691 506 742 534 
Q 794 563 845 563 
Q 1101 563 1101 294 
Q 1101 147 982 32 
Q 864 -83 646 -83 
Q 480 -83 361 48 
Q 243 179 243 422 
Q 243 678 387 899 
Q 531 1120 819 1328 
Q 1107 1536 1443 1721 
Q 1779 1907 2259 2150 
Q 2317 2176 2342 2189 
L 2189 3168 
Q 2080 3840 1779 3840 
Q 1536 3840 1408 3622 
L 1267 3686 
Q 1530 4237 2061 4237 
Q 2387 4237 2579 3958 
Q 2771 3680 2842 3027 
z
" transform="scale(0.015625)"/>
     </defs>
     <use xlink:href="#STIXNonUnicode-Italic-e244" transform="translate(0 0.796875)"/>
    </g>
   </g>
   <g id="text_2">
    <!-- $\mathcal{ZZ}^\dag$ -->
    <g transform="translate(819.840474 524.790498) scale(0.2 -0.2)">
     <defs>
      <path id="STIXNonUnicode-Italic-e246" d="M 4570 4237 
L 4531 4102 
Q 4346 4077 3962 3616 
L 2938 2400 
L 3642 2400 
L 3533 2157 
L 2726 2157 
Q 2650 2074 2445 1840 
Q 2240 1606 2150 1504 
Q 2061 1402 1881 1206 
Q 1702 1011 1584 889 
Q 1466 768 1306 611 
Q 1146 454 998 326 
Q 1062 339 1197 339 
Q 1562 339 1923 188 
Q 2285 38 2627 -112 
Q 2970 -262 3290 -262 
Q 3629 -262 3846 -96 
Q 4064 70 4141 294 
L 4282 294 
Q 4186 -6 4026 -198 
Q 3866 -390 3638 -473 
Q 3411 -557 3232 -579 
Q 3053 -602 2797 -602 
Q 2528 -602 2233 -522 
Q 1939 -442 1580 -304 
Q 1222 -166 1043 -115 
Q 627 0 301 0 
L 243 0 
L 262 122 
Q 704 339 1037 691 
Q 1722 1389 2387 2157 
L 1670 2157 
L 1766 2400 
L 2598 2400 
L 3578 3571 
L 3533 3603 
Q 3392 3590 3315 3590 
Q 3053 3590 2768 3744 
Q 2483 3898 2285 3898 
Q 1926 3898 1625 3664 
Q 1325 3430 1171 3206 
L 1043 3277 
Q 1350 3744 1814 3997 
Q 2278 4250 2746 4250 
Q 2880 4250 3200 4179 
Q 3520 4109 3674 4109 
Q 3866 4109 4138 4173 
Q 4410 4237 4570 4237 
z
" transform="scale(0.015625)"/>
      <path id="DejaVuSans-2020" d="M 1325 4666 
L 1875 4666 
L 1875 3353 
L 3022 3353 
L 3022 2875 
L 1875 2875 
L 1875 -616 
L 1325 -616 
L 1325 2875 
L 178 2875 
L 178 3353 
L 1325 3353 
L 1325 4666 
z
" transform="scale(0.015625)"/>
     </defs>
     <use xlink:href="#STIXNonUnicode-Italic-e246" transform="translate(0 0.684375)"/>
     <use xlink:href="#STIXNonUnicode-Italic-e246" transform="translate(75.199982 0.684375)"/>
     <use xlink:href="#DejaVuSans-2020" transform="translate(151.356995 38.965625) scale(0.7)"/>
    </g>
   </g>
   <g id="text_3">
    <!-- $\mathcal{X}^2, \mathcal{Z}^2\mathcal{Z}^2$ -->
    <g transform="translate(485.33225 42.425069) scale(0.2 -0.2)">
     <defs>
      <path id="DejaVuSans-32" d="M 1228 531 
L 3431 531 
L 3431 0 
L 469 0 
L 469 531 
Q 828 903 1448 1529 
Q 2069 2156 2228 2338 
Q 2531 2678 2651 2914 
Q 2772 3150 2772 3378 
Q 2772 3750 2511 3984 
Q 2250 4219 1831 4219 
Q 1534 4219 1204 4116 
Q 875 4013 500 3803 
L 500 4441 
Q 881 4594 1212 4672 
Q 1544 4750 1819 4750 
Q 2544 4750 2975 4387 
Q 3406 4025 3406 3419 
Q 3406 3131 3298 2873 
Q 3191 2616 2906 2266 
Q 2828 2175 2409 1742 
Q 1991 1309 1228 531 
z
" transform="scale(0.015625)"/>
      <path id="DejaVuSans-2c" d="M 750 794 
L 1409 794 
L 1409 256 
L 897 -744 
L 494 -744 
L 750 256 
L 750 794 
z
" transform="scale(0.015625)"/>
     </defs>
     <use xlink:href="#STIXNonUnicode-Italic-e244" transform="translate(0 0.765625)"/>
     <use xlink:href="#DejaVuSans-32" transform="translate(70.157013 39.046875) scale(0.7)"/>
     <use xlink:href="#DejaVuSans-2c" transform="translate(117.427521 0.765625)"/>
     <use xlink:href="#STIXNonUnicode-Italic-e246" transform="translate(168.697052 0.765625)"/>
     <use xlink:href="#DejaVuSans-32" transform="translate(244.854065 39.046875) scale(0.7)"/>
     <use xlink:href="#STIXNonUnicode-Italic-e246" transform="translate(292.124573 0.765625)"/>
     <use xlink:href="#DejaVuSans-32" transform="translate(368.281586 39.046875) scale(0.7)"/>
    </g>
   </g>
  </g>
  <g id="axes_2">
   <g id="patch_3">
    <path d="M 873.936 459.490909 
L 925.344 459.490909 
L 925.344 102.109091 
L 873.936 102.109091 
z
" style="fill: #ffffff"/>
   </g>
   <g id="patch_4">
    <path d="M 873.936 459.490909 
L 899.64 477.36 
L 925.344 459.490909 
" style="fill: #440154"/>
   </g>
   <g id="patch_5">
    <path d="M 873.936 102.109091 
L 899.64 84.24 
L 925.344 102.109091 
" style="fill: #fde725"/>
   </g>
   <g id="QuadMesh_1">
    <path d="M 873.936 459.490909 
L 925.344 459.490909 
L 925.344 399.927273 
L 873.936 399.927273 
L 873.936 459.490909 
" clip-path="url(#pb1302520a7)" style="fill: #481f70"/>
    <path d="M 873.936 399.927273 
L 925.344 399.927273 
L 925.344 340.363636 
L 873.936 340.363636 
L 873.936 399.927273 
" clip-path="url(#pb1302520a7)" style="fill: #3b528b"/>
    <path d="M 873.936 340.363636 
L 925.344 340.363636 
L 925.344 280.8 
L 873.936 280.8 
L 873.936 340.363636 
" clip-path="url(#pb1302520a7)" style="fill: #287c8e"/>
    <path d="M 873.936 280.8 
L 925.344 280.8 
L 925.344 221.236364 
L 873.936 221.236364 
L 873.936 280.8 
" clip-path="url(#pb1302520a7)" style="fill: #20a486"/>
    <path d="M 873.936 221.236364 
L 925.344 221.236364 
L 925.344 161.672727 
L 873.936 161.672727 
L 873.936 221.236364 
" clip-path="url(#pb1302520a7)" style="fill: #5ec962"/>
    <path d="M 873.936 161.672727 
L 925.344 161.672727 
L 925.344 102.109091 
L 873.936 102.109091 
L 873.936 161.672727 
" clip-path="url(#pb1302520a7)" style="fill: #c8e020"/>
   </g>
   <g id="matplotlib.axis_1"/>
   <g id="matplotlib.axis_2">
    <g id="ytick_1">
     <g id="line2d_1">
      <defs>
       <path id="m490413de39" d="M 0 0 
L 3.5 0 
" style="stroke: #000000; stroke-width: 0.8"/>
      </defs>
      <g>
       <use xlink:href="#m490413de39" x="925.344" y="459.490909" style="stroke: #000000; stroke-width: 0.8"/>
      </g>
     </g>
     <g id="text_4">
      <!-- 0.5 -->
      <g transform="translate(932.344 463.290128) scale(0.1 -0.1)">
       <defs>
        <path id="DejaVuSans-30" d="M 2034 4250 
Q 1547 4250 1301 3770 
Q 1056 3291 1056 2328 
Q 1056 1369 1301 889 
Q 1547 409 2034 409 
Q 2525 409 2770 889 
Q 3016 1369 3016 2328 
Q 3016 3291 2770 3770 
Q 2525 4250 2034 4250 
z
M 2034 4750 
Q 2819 4750 3233 4129 
Q 3647 3509 3647 2328 
Q 3647 1150 3233 529 
Q 2819 -91 2034 -91 
Q 1250 -91 836 529 
Q 422 1150 422 2328 
Q 422 3509 836 4129 
Q 1250 4750 2034 4750 
z
" transform="scale(0.015625)"/>
        <path id="DejaVuSans-2e" d="M 684 794 
L 1344 794 
L 1344 0 
L 684 0 
L 684 794 
z
" transform="scale(0.015625)"/>
        <path id="DejaVuSans-35" d="M 691 4666 
L 3169 4666 
L 3169 4134 
L 1269 4134 
L 1269 2991 
Q 1406 3038 1543 3061 
Q 1681 3084 1819 3084 
Q 2600 3084 3056 2656 
Q 3513 2228 3513 1497 
Q 3513 744 3044 326 
Q 2575 -91 1722 -91 
Q 1428 -91 1123 -41 
Q 819 9 494 109 
L 494 744 
Q 775 591 1075 516 
Q 1375 441 1709 441 
Q 2250 441 2565 725 
Q 2881 1009 2881 1497 
Q 2881 1984 2565 2268 
Q 2250 2553 1709 2553 
Q 1456 2553 1204 2497 
Q 953 2441 691 2322 
L 691 4666 
z
" transform="scale(0.015625)"/>
       </defs>
       <use xlink:href="#DejaVuSans-30"/>
       <use xlink:href="#DejaVuSans-2e" x="63.623047"/>
       <use xlink:href="#DejaVuSans-35" x="95.410156"/>
      </g>
     </g>
    </g>
    <g id="ytick_2">
     <g id="line2d_2">
      <g>
       <use xlink:href="#m490413de39" x="925.344" y="399.927273" style="stroke: #000000; stroke-width: 0.8"/>
      </g>
     </g>
     <g id="text_5">
      <!-- 1.0 -->
      <g transform="translate(932.344 403.726491) scale(0.1 -0.1)">
       <defs>
        <path id="DejaVuSans-31" d="M 794 531 
L 1825 531 
L 1825 4091 
L 703 3866 
L 703 4441 
L 1819 4666 
L 2450 4666 
L 2450 531 
L 3481 531 
L 3481 0 
L 794 0 
L 794 531 
z
" transform="scale(0.015625)"/>
       </defs>
       <use xlink:href="#DejaVuSans-31"/>
       <use xlink:href="#DejaVuSans-2e" x="63.623047"/>
       <use xlink:href="#DejaVuSans-30" x="95.410156"/>
      </g>
     </g>
    </g>
    <g id="ytick_3">
     <g id="line2d_3">
      <g>
       <use xlink:href="#m490413de39" x="925.344" y="340.363636" style="stroke: #000000; stroke-width: 0.8"/>
      </g>
     </g>
     <g id="text_6">
      <!-- 1.5 -->
      <g transform="translate(932.344 344.162855) scale(0.1 -0.1)">
       <use xlink:href="#DejaVuSans-31"/>
       <use xlink:href="#DejaVuSans-2e" x="63.623047"/>
       <use xlink:href="#DejaVuSans-35" x="95.410156"/>
      </g>
     </g>
    </g>
    <g id="ytick_4">
     <g id="line2d_4">
      <g>
       <use xlink:href="#m490413de39" x="925.344" y="280.8" style="stroke: #000000; stroke-width: 0.8"/>
      </g>
     </g>
     <g id="text_7">
      <!-- 2.0 -->
      <g transform="translate(932.344 284.599219) scale(0.1 -0.1)">
       <use xlink:href="#DejaVuSans-32"/>
       <use xlink:href="#DejaVuSans-2e" x="63.623047"/>
       <use xlink:href="#DejaVuSans-30" x="95.410156"/>
      </g>
     </g>
    </g>
    <g id="ytick_5">
     <g id="line2d_5">
      <g>
       <use xlink:href="#m490413de39" x="925.344" y="221.236364" style="stroke: #000000; stroke-width: 0.8"/>
      </g>
     </g>
     <g id="text_8">
      <!-- 2.5 -->
      <g transform="translate(932.344 225.035582) scale(0.1 -0.1)">
       <use xlink:href="#DejaVuSans-32"/>
       <use xlink:href="#DejaVuSans-2e" x="63.623047"/>
       <use xlink:href="#DejaVuSans-35" x="95.410156"/>
      </g>
     </g>
    </g>
    <g id="ytick_6">
     <g id="line2d_6">
      <g>
       <use xlink:href="#m490413de39" x="925.344" y="161.672727" style="stroke: #000000; stroke-width: 0.8"/>
      </g>
     </g>
     <g id="text_9">
      <!-- 3.0 -->
      <g transform="translate(932.344 165.471946) scale(0.1 -0.1)">
       <defs>
        <path id="DejaVuSans-33" d="M 2597 2516 
Q 3050 2419 3304 2112 
Q 3559 1806 3559 1356 
Q 3559 666 3084 287 
Q 2609 -91 1734 -91 
Q 1441 -91 1130 -33 
Q 819 25 488 141 
L 488 750 
Q 750 597 1062 519 
Q 1375 441 1716 441 
Q 2309 441 2620 675 
Q 2931 909 2931 1356 
Q 2931 1769 2642 2001 
Q 2353 2234 1838 2234 
L 1294 2234 
L 1294 2753 
L 1863 2753 
Q 2328 2753 2575 2939 
Q 2822 3125 2822 3475 
Q 2822 3834 2567 4026 
Q 2313 4219 1838 4219 
Q 1578 4219 1281 4162 
Q 984 4106 628 3988 
L 628 4550 
Q 988 4650 1302 4700 
Q 1616 4750 1894 4750 
Q 2613 4750 3031 4423 
Q 3450 4097 3450 3541 
Q 3450 3153 3228 2886 
Q 3006 2619 2597 2516 
z
" transform="scale(0.015625)"/>
       </defs>
       <use xlink:href="#DejaVuSans-33"/>
       <use xlink:href="#DejaVuSans-2e" x="63.623047"/>
       <use xlink:href="#DejaVuSans-30" x="95.410156"/>
      </g>
     </g>
    </g>
    <g id="ytick_7">
     <g id="line2d_7">
      <g>
       <use xlink:href="#m490413de39" x="925.344" y="102.109091" style="stroke: #000000; stroke-width: 0.8"/>
      </g>
     </g>
     <g id="text_10">
      <!-- 3.5 -->
      <g transform="translate(932.344 105.90831) scale(0.1 -0.1)">
       <use xlink:href="#DejaVuSans-33"/>
       <use xlink:href="#DejaVuSans-2e" x="63.623047"/>
       <use xlink:href="#DejaVuSans-35" x="95.410156"/>
      </g>
     </g>
    </g>
    <g id="text_11">
     <!-- Entanglement Entropy $S$ -->
     <g transform="translate(959.847125 341.95) rotate(-90) scale(0.1 -0.1)">
      <defs>
       <path id="DejaVuSans-45" d="M 628 4666 
L 3578 4666 
L 3578 4134 
L 1259 4134 
L 1259 2753 
L 3481 2753 
L 3481 2222 
L 1259 2222 
L 1259 531 
L 3634 531 
L 3634 0 
L 628 0 
L 628 4666 
z
" transform="scale(0.015625)"/>
       <path id="DejaVuSans-6e" d="M 3513 2113 
L 3513 0 
L 2938 0 
L 2938 2094 
Q 2938 2591 2744 2837 
Q 2550 3084 2163 3084 
Q 1697 3084 1428 2787 
Q 1159 2491 1159 1978 
L 1159 0 
L 581 0 
L 581 3500 
L 1159 3500 
L 1159 2956 
Q 1366 3272 1645 3428 
Q 1925 3584 2291 3584 
Q 2894 3584 3203 3211 
Q 3513 2838 3513 2113 
z
" transform="scale(0.015625)"/>
       <path id="DejaVuSans-74" d="M 1172 4494 
L 1172 3500 
L 2356 3500 
L 2356 3053 
L 1172 3053 
L 1172 1153 
Q 1172 725 1289 603 
Q 1406 481 1766 481 
L 2356 481 
L 2356 0 
L 1766 0 
Q 1100 0 847 248 
Q 594 497 594 1153 
L 594 3053 
L 172 3053 
L 172 3500 
L 594 3500 
L 594 4494 
L 1172 4494 
z
" transform="scale(0.015625)"/>
       <path id="DejaVuSans-61" d="M 2194 1759 
Q 1497 1759 1228 1600 
Q 959 1441 959 1056 
Q 959 750 1161 570 
Q 1363 391 1709 391 
Q 2188 391 2477 730 
Q 2766 1069 2766 1631 
L 2766 1759 
L 2194 1759 
z
M 3341 1997 
L 3341 0 
L 2766 0 
L 2766 531 
Q 2569 213 2275 61 
Q 1981 -91 1556 -91 
Q 1019 -91 701 211 
Q 384 513 384 1019 
Q 384 1609 779 1909 
Q 1175 2209 1959 2209 
L 2766 2209 
L 2766 2266 
Q 2766 2663 2505 2880 
Q 2244 3097 1772 3097 
Q 1472 3097 1187 3025 
Q 903 2953 641 2809 
L 641 3341 
Q 956 3463 1253 3523 
Q 1550 3584 1831 3584 
Q 2591 3584 2966 3190 
Q 3341 2797 3341 1997 
z
" transform="scale(0.015625)"/>
       <path id="DejaVuSans-67" d="M 2906 1791 
Q 2906 2416 2648 2759 
Q 2391 3103 1925 3103 
Q 1463 3103 1205 2759 
Q 947 2416 947 1791 
Q 947 1169 1205 825 
Q 1463 481 1925 481 
Q 2391 481 2648 825 
Q 2906 1169 2906 1791 
z
M 3481 434 
Q 3481 -459 3084 -895 
Q 2688 -1331 1869 -1331 
Q 1566 -1331 1297 -1286 
Q 1028 -1241 775 -1147 
L 775 -588 
Q 1028 -725 1275 -790 
Q 1522 -856 1778 -856 
Q 2344 -856 2625 -561 
Q 2906 -266 2906 331 
L 2906 616 
Q 2728 306 2450 153 
Q 2172 0 1784 0 
Q 1141 0 747 490 
Q 353 981 353 1791 
Q 353 2603 747 3093 
Q 1141 3584 1784 3584 
Q 2172 3584 2450 3431 
Q 2728 3278 2906 2969 
L 2906 3500 
L 3481 3500 
L 3481 434 
z
" transform="scale(0.015625)"/>
       <path id="DejaVuSans-6c" d="M 603 4863 
L 1178 4863 
L 1178 0 
L 603 0 
L 603 4863 
z
" transform="scale(0.015625)"/>
       <path id="DejaVuSans-65" d="M 3597 1894 
L 3597 1613 
L 953 1613 
Q 991 1019 1311 708 
Q 1631 397 2203 397 
Q 2534 397 2845 478 
Q 3156 559 3463 722 
L 3463 178 
Q 3153 47 2828 -22 
Q 2503 -91 2169 -91 
Q 1331 -91 842 396 
Q 353 884 353 1716 
Q 353 2575 817 3079 
Q 1281 3584 2069 3584 
Q 2775 3584 3186 3129 
Q 3597 2675 3597 1894 
z
M 3022 2063 
Q 3016 2534 2758 2815 
Q 2500 3097 2075 3097 
Q 1594 3097 1305 2825 
Q 1016 2553 972 2059 
L 3022 2063 
z
" transform="scale(0.015625)"/>
       <path id="DejaVuSans-6d" d="M 3328 2828 
Q 3544 3216 3844 3400 
Q 4144 3584 4550 3584 
Q 5097 3584 5394 3201 
Q 5691 2819 5691 2113 
L 5691 0 
L 5113 0 
L 5113 2094 
Q 5113 2597 4934 2840 
Q 4756 3084 4391 3084 
Q 3944 3084 3684 2787 
Q 3425 2491 3425 1978 
L 3425 0 
L 2847 0 
L 2847 2094 
Q 2847 2600 2669 2842 
Q 2491 3084 2119 3084 
Q 1678 3084 1418 2786 
Q 1159 2488 1159 1978 
L 1159 0 
L 581 0 
L 581 3500 
L 1159 3500 
L 1159 2956 
Q 1356 3278 1631 3431 
Q 1906 3584 2284 3584 
Q 2666 3584 2933 3390 
Q 3200 3197 3328 2828 
z
" transform="scale(0.015625)"/>
       <path id="DejaVuSans-20" transform="scale(0.015625)"/>
       <path id="DejaVuSans-72" d="M 2631 2963 
Q 2534 3019 2420 3045 
Q 2306 3072 2169 3072 
Q 1681 3072 1420 2755 
Q 1159 2438 1159 1844 
L 1159 0 
L 581 0 
L 581 3500 
L 1159 3500 
L 1159 2956 
Q 1341 3275 1631 3429 
Q 1922 3584 2338 3584 
Q 2397 3584 2469 3576 
Q 2541 3569 2628 3553 
L 2631 2963 
z
" transform="scale(0.015625)"/>
       <path id="DejaVuSans-6f" d="M 1959 3097 
Q 1497 3097 1228 2736 
Q 959 2375 959 1747 
Q 959 1119 1226 758 
Q 1494 397 1959 397 
Q 2419 397 2687 759 
Q 2956 1122 2956 1747 
Q 2956 2369 2687 2733 
Q 2419 3097 1959 3097 
z
M 1959 3584 
Q 2709 3584 3137 3096 
Q 3566 2609 3566 1747 
Q 3566 888 3137 398 
Q 2709 -91 1959 -91 
Q 1206 -91 779 398 
Q 353 888 353 1747 
Q 353 2609 779 3096 
Q 1206 3584 1959 3584 
z
" transform="scale(0.015625)"/>
       <path id="DejaVuSans-70" d="M 1159 525 
L 1159 -1331 
L 581 -1331 
L 581 3500 
L 1159 3500 
L 1159 2969 
Q 1341 3281 1617 3432 
Q 1894 3584 2278 3584 
Q 2916 3584 3314 3078 
Q 3713 2572 3713 1747 
Q 3713 922 3314 415 
Q 2916 -91 2278 -91 
Q 1894 -91 1617 61 
Q 1341 213 1159 525 
z
M 3116 1747 
Q 3116 2381 2855 2742 
Q 2594 3103 2138 3103 
Q 1681 3103 1420 2742 
Q 1159 2381 1159 1747 
Q 1159 1113 1420 752 
Q 1681 391 2138 391 
Q 2594 391 2855 752 
Q 3116 1113 3116 1747 
z
" transform="scale(0.015625)"/>
       <path id="DejaVuSans-79" d="M 2059 -325 
Q 1816 -950 1584 -1140 
Q 1353 -1331 966 -1331 
L 506 -1331 
L 506 -850 
L 844 -850 
Q 1081 -850 1212 -737 
Q 1344 -625 1503 -206 
L 1606 56 
L 191 3500 
L 800 3500 
L 1894 763 
L 2988 3500 
L 3597 3500 
L 2059 -325 
z
" transform="scale(0.015625)"/>
       <path id="DejaVuSans-Oblique-53" d="M 3859 4513 
L 3738 3897 
Q 3422 4066 3111 4152 
Q 2800 4238 2509 4238 
Q 1944 4238 1609 3991 
Q 1275 3744 1275 3334 
Q 1275 3109 1398 2989 
Q 1522 2869 2034 2731 
L 2413 2638 
Q 3053 2472 3303 2217 
Q 3553 1963 3553 1503 
Q 3553 797 2998 353 
Q 2444 -91 1538 -91 
Q 1166 -91 791 -17 
Q 416 56 38 206 
L 166 856 
Q 513 641 861 531 
Q 1209 422 1556 422 
Q 2147 422 2503 684 
Q 2859 947 2859 1369 
Q 2859 1650 2717 1795 
Q 2575 1941 2106 2059 
L 1728 2156 
Q 1081 2325 845 2545 
Q 609 2766 609 3163 
Q 609 3859 1145 4304 
Q 1681 4750 2541 4750 
Q 2875 4750 3203 4690 
Q 3531 4631 3859 4513 
z
" transform="scale(0.015625)"/>
      </defs>
      <use xlink:href="#DejaVuSans-45" transform="translate(0 0.015625)"/>
      <use xlink:href="#DejaVuSans-6e" transform="translate(63.183594 0.015625)"/>
      <use xlink:href="#DejaVuSans-74" transform="translate(126.5625 0.015625)"/>
      <use xlink:href="#DejaVuSans-61" transform="translate(165.771484 0.015625)"/>
      <use xlink:href="#DejaVuSans-6e" transform="translate(227.050781 0.015625)"/>
      <use xlink:href="#DejaVuSans-67" transform="translate(290.429688 0.015625)"/>
      <use xlink:href="#DejaVuSans-6c" transform="translate(353.90625 0.015625)"/>
      <use xlink:href="#DejaVuSans-65" transform="translate(381.689453 0.015625)"/>
      <use xlink:href="#DejaVuSans-6d" transform="translate(443.212891 0.015625)"/>
      <use xlink:href="#DejaVuSans-65" transform="translate(540.625 0.015625)"/>
      <use xlink:href="#DejaVuSans-6e" transform="translate(602.148438 0.015625)"/>
      <use xlink:href="#DejaVuSans-74" transform="translate(665.527344 0.015625)"/>
      <use xlink:href="#DejaVuSans-20" transform="translate(704.736328 0.015625)"/>
      <use xlink:href="#DejaVuSans-45" transform="translate(736.523438 0.015625)"/>
      <use xlink:href="#DejaVuSans-6e" transform="translate(799.707031 0.015625)"/>
      <use xlink:href="#DejaVuSans-74" transform="translate(863.085938 0.015625)"/>
      <use xlink:href="#DejaVuSans-72" transform="translate(902.294922 0.015625)"/>
      <use xlink:href="#DejaVuSans-6f" transform="translate(943.408203 0.015625)"/>
      <use xlink:href="#DejaVuSans-70" transform="translate(1004.589844 0.015625)"/>
      <use xlink:href="#DejaVuSans-79" transform="translate(1068.066406 0.015625)"/>
      <use xlink:href="#DejaVuSans-20" transform="translate(1127.246094 0.015625)"/>
      <use xlink:href="#DejaVuSans-Oblique-53" transform="translate(1159.033203 0.015625)"/>
     </g>
    </g>
   </g>
   <g id="LineCollection_1"/>
   <g id="patch_6">
    <path d="M 873.936 459.490909 
L 899.64 477.36 
L 925.344 459.490909 
L 925.344 102.109091 
L 899.64 84.24 
L 873.936 102.109091 
L 873.936 459.490909 
z
" style="fill: none; stroke: #000000; stroke-width: 0.8; stroke-linejoin: miter; stroke-linecap: square"/>
   </g>
  </g>
 </g>
 <defs>
  <clipPath id="p409f4397c3">
   <rect x="277.267268" y="67.392" width="499.329463" height="432.432"/>
  </clipPath>
  <clipPath id="pb1302520a7">
   <rect x="873.936" y="102.109091" width="51.408" height="357.381818"/>
  </clipPath>
 </defs>
</svg>
