<?xml version="1.0" encoding="utf-8" standalone="no"?>
<!DOCTYPE svg PUBLIC "-//W3C//DTD SVG 1.1//EN"
  "http://www.w3.org/Graphics/SVG/1.1/DTD/svg11.dtd">
<svg xmlns:xlink="http://www.w3.org/1999/xlink" width="1028.16pt" height="561.6pt" viewBox="0 0 1028.16 561.6" xmlns="http://www.w3.org/2000/svg" version="1.1">
 <metadata>
  <rdf:RDF xmlns:dc="http://purl.org/dc/elements/1.1/" xmlns:cc="http://creativecommons.org/ns#" xmlns:rdf="http://www.w3.org/1999/02/22-rdf-syntax-ns#">
   <cc:Work>
    <dc:type rdf:resource="http://purl.org/dc/dcmitype/StillImage"/>
    <dc:date>2024-11-16T01:32:52.715139</dc:date>
    <dc:format>image/svg+xml</dc:format>
    <dc:creator>
     <cc:Agent>
      <dc:title>Matplotlib v3.8.4, https://matplotlib.org/</dc:title>
     </cc:Agent>
    </dc:creator>
   </cc:Work>
  </rdf:RDF>
 </metadata>
 <defs>
  <style type="text/css">*{stroke-linejoin: round; stroke-linecap: butt}</style>
 </defs>
 <g id="figure_1">
  <g id="patch_1">
   <path d="M 0 561.6 
L 1028.16 561.6 
L 1028.16 0 
L 0 0 
z
" style="fill: #ffffff"/>
  </g>
  <g id="axes_1">
   <g id="patch_2">
    <path d="M 277.267268 499.824 
L 776.597231 499.824 
L 526.93225 67.391568 
z
" clip-path="url(#p46786fcce5)" style="fill: #1f77b4; stroke: #000000; stroke-linejoin: miter"/>
   </g>
   <g id="TriContourSet_1">
    <path d="M 531.023981 499.824 
L 530.723459 497.741918 
L 530.427559 495.499676 
L 530.413494 493.794308 
L 530.503616 491.175351 
L 530.632104 488.935039 
L 530.78762 486.851027 
L 530.371031 485.219207 
L 529.520018 482.526703 
L 529.327684 478.377689 
L 529.271216 478.202378 
L 529.308094 477.993137 
L 529.820531 473.878054 
L 528.750797 470.728238 
L 528.362369 469.55373 
L 527.859577 466.835583 
L 527.5067 465.229405 
L 527.389383 464.437628 
L 526.347927 460.905081 
L 525.352737 459.316554 
L 523.603383 456.580757 
L 523.923467 453.143473 
L 523.82104 452.256432 
L 522.771167 449.37355 
L 522.185533 447.932108 
L 522.088004 447.673939 
L 520.512293 445.461066 
L 519.35206 443.764085 
L 519.275857 443.607784 
L 519.184026 443.16044 
L 518.974178 439.283459 
L 517.777867 437.842018 
L 516.423096 434.959135 
L 515.992384 432.285916 
L 515.565923 430.634811 
L 513.339378 428.232408 
L 511.632267 426.310486 
L 510.999084 423.637268 
L 510.554227 421.986162 
L 509.410307 417.740462 
L 509.377681 417.661838 
L 509.099037 417.044077 
L 507.387048 413.337514 
L 507.196827 412.925673 
L 504.789831 409.013189 
L 504.578525 408.812058 
L 502.306204 404.688865 
L 502.189332 404.301612 
L 499.825766 400.982301 
L 499.437499 400.419279 
L 499.4034 400.364541 
L 499.337699 400.136945 
L 498.399109 396.040216 
L 497.450534 395.212154 
L 496.110776 391.715892 
L 495.418415 390.083239 
L 492.856354 387.391568 
L 492.558732 386.387707 
L 491.493693 383.067243 
L 490.221307 381.787596 
L 487.562003 378.742919 
L 487.311503 378.178877 
L 485.828869 374.418595 
L 485.897569 371.979232 
L 482.200607 370.454631 
L 481.939433 370.186277 
L 481.845691 370.09427 
L 481.845691 369.839898 
L 481.544436 365.769946 
L 480.637229 363.793112 
L 478.197645 361.445622 
L 477.404116 360.74438 
L 475.577111 357.121297 
L 474.949373 356.347471 
L 472.481506 353.620654 
L 471.901927 352.977153 
L 471.707846 352.796973 
L 470.008634 349.337514 
L 469.59847 348.472649 
L 469.543505 348.413411 
L 468.446374 344.148324 
L 468.061971 342.330855 
L 466.065649 339.824 
L 465.107316 338.799818 
L 462.415648 335.499676 
L 462.192733 335.199375 
L 460.236033 332.410873 
L 459.422839 331.348324 
L 459.35344 331.175351 
L 456.401892 327.932108 
L 455.269153 326.851027 
L 453.419783 324.448625 
L 451.840705 322.526703 
L 450.194563 321.386222 
L 447.112887 318.202378 
L 447.07188 318.146218 
L 446.76205 317.721898 
L 444.276497 314.339315 
L 443.877033 313.878054 
L 441.280517 310.879856 
L 440.332038 309.55373 
L 438.246906 307.485575 
L 435.745087 305.229405 
L 435.069217 304.340846 
L 432.772885 302.140602 
L 431.923376 301.140953 
L 431.591435 300.905081 
L 430.187069 297.661838 
L 429.709769 296.580757 
L 429.671457 296.392743 
L 428.564247 294.851027 
L 426.956111 292.447211 
L 426.807983 292.256432 
L 423.581922 289.64283 
L 421.177932 287.932108 
L 420.093906 287.035602 
L 418.015902 283.607784 
L 417.520243 282.844668 
L 416.143414 281.986162 
L 413.958846 280.364541 
L 412.872974 279.283459 
L 411.16654 276.552307 
L 410.222193 274.959135 
L 408.55984 272.418595 
L 407.093059 274.959135 
L 404.596409 279.283459 
L 402.099759 283.607784 
L 399.603109 287.932108 
L 397.106459 292.256432 
L 394.60981 296.580757 
L 392.11316 300.905081 
L 389.61651 305.229405 
L 387.11986 309.55373 
L 384.62321 313.878054 
L 382.126561 318.202378 
L 379.629911 322.526703 
L 377.133261 326.851027 
L 374.636611 331.175351 
L 372.139961 335.499676 
L 369.643311 339.824 
L 367.146662 344.148324 
L 364.650012 348.472649 
L 362.153362 352.796973 
L 359.656712 357.121297 
L 357.160062 361.445622 
L 354.663413 365.769946 
L 352.166763 370.09427 
L 349.670113 374.418595 
L 347.173463 378.742919 
L 344.676813 383.067243 
L 342.180164 387.391568 
L 339.683514 391.715892 
L 337.186864 396.040216 
L 334.690214 400.364541 
L 332.193564 404.688865 
L 329.696914 409.013189 
L 327.200265 413.337514 
L 324.703615 417.661838 
L 322.206965 421.986162 
L 319.710315 426.310486 
L 317.213665 430.634811 
L 314.717016 434.959135 
L 312.220366 439.283459 
L 309.723716 443.607784 
L 307.227066 447.932108 
L 304.730416 452.256432 
L 302.233767 456.580757 
L 299.737117 460.905081 
L 297.240467 465.229405 
L 294.743817 469.55373 
L 292.247167 473.878054 
L 289.750517 478.202378 
L 287.253868 482.526703 
L 284.757218 486.851027 
L 282.260568 491.175351 
L 279.763918 495.499676 
L 277.267268 499.824 
L 282.260568 499.824 
L 287.253868 499.824 
L 292.247167 499.824 
L 297.240467 499.824 
L 302.233767 499.824 
L 307.227066 499.824 
L 312.220366 499.824 
L 317.213665 499.824 
L 322.206965 499.824 
L 327.200265 499.824 
L 332.193564 499.824 
L 337.186864 499.824 
L 342.180164 499.824 
L 347.173463 499.824 
L 352.166763 499.824 
L 357.160062 499.824 
L 362.153362 499.824 
L 367.146662 499.824 
L 372.139961 499.824 
L 377.133261 499.824 
L 382.126561 499.824 
L 387.11986 499.824 
L 392.11316 499.824 
L 397.106459 499.824 
L 402.099759 499.824 
L 407.093059 499.824 
L 412.086358 499.824 
L 417.079658 499.824 
L 422.072958 499.824 
L 427.066257 499.824 
L 432.059557 499.824 
L 437.052856 499.824 
L 442.046156 499.824 
L 447.039456 499.824 
L 452.032755 499.824 
L 457.026055 499.824 
L 462.019355 499.824 
L 467.012654 499.824 
L 472.005954 499.824 
L 476.999253 499.824 
L 481.992553 499.824 
L 486.985853 499.824 
L 491.979152 499.824 
L 496.972452 499.824 
L 501.965752 499.824 
L 506.959051 499.824 
L 511.952351 499.824 
L 516.94565 499.824 
L 521.93895 499.824 
L 526.93225 499.824 
z
" clip-path="url(#p46786fcce5)" style="fill: #440154"/>
    <path d="M 408.55984 272.418595 
L 410.222193 274.959135 
L 411.16654 276.552307 
L 412.872974 279.283459 
L 413.958846 280.364541 
L 416.143414 281.986162 
L 417.520243 282.844668 
L 418.015902 283.607784 
L 420.093906 287.035602 
L 421.177932 287.932108 
L 423.581922 289.64283 
L 426.807983 292.256432 
L 426.956111 292.447211 
L 428.564247 294.851027 
L 429.671457 296.392743 
L 429.709769 296.580757 
L 430.187069 297.661838 
L 431.591435 300.905081 
L 431.923376 301.140953 
L 432.772885 302.140602 
L 435.069217 304.340846 
L 435.745087 305.229405 
L 438.246906 307.485575 
L 440.332038 309.55373 
L 441.280517 310.879856 
L 443.877033 313.878054 
L 444.276497 314.339315 
L 446.76205 317.721898 
L 447.07188 318.146218 
L 447.112887 318.202378 
L 450.194563 321.386222 
L 451.840705 322.526703 
L 453.419783 324.448625 
L 455.269153 326.851027 
L 456.401892 327.932108 
L 459.35344 331.175351 
L 459.422839 331.348324 
L 460.236033 332.410873 
L 462.192733 335.199375 
L 462.415648 335.499676 
L 465.107316 338.799818 
L 466.065649 339.824 
L 468.061971 342.330855 
L 468.446374 344.148324 
L 469.543505 348.413411 
L 469.59847 348.472649 
L 470.008634 349.337514 
L 471.707846 352.796973 
L 471.901927 352.977153 
L 472.481506 353.620654 
L 474.949373 356.347471 
L 475.577111 357.121297 
L 477.404116 360.74438 
L 478.197645 361.445622 
L 480.637229 363.793112 
L 481.544436 365.769946 
L 481.845691 369.839898 
L 481.845691 370.09427 
L 481.939433 370.186277 
L 482.200607 370.454631 
L 485.897569 371.979232 
L 485.828869 374.418595 
L 487.311503 378.178877 
L 487.562003 378.742919 
L 490.221307 381.787596 
L 491.493693 383.067243 
L 492.558732 386.387707 
L 492.856354 387.391568 
L 495.418415 390.083239 
L 496.110776 391.715892 
L 497.450534 395.212154 
L 498.399109 396.040216 
L 499.337699 400.136945 
L 499.4034 400.364541 
L 499.437499 400.419279 
L 499.825766 400.982301 
L 502.189332 404.301612 
L 502.306204 404.688865 
L 504.578525 408.812058 
L 504.789831 409.013189 
L 507.196827 412.925673 
L 507.387048 413.337514 
L 509.099037 417.044077 
L 509.377681 417.661838 
L 509.410307 417.740462 
L 510.554227 421.986162 
L 510.999084 423.637268 
L 511.632267 426.310486 
L 513.339378 428.232408 
L 515.565923 430.634811 
L 515.992384 432.285916 
L 516.423096 434.959135 
L 517.777867 437.842018 
L 518.974178 439.283459 
L 519.184026 443.16044 
L 519.275857 443.607784 
L 519.35206 443.764085 
L 520.512293 445.461066 
L 522.088004 447.673939 
L 522.185533 447.932108 
L 522.771167 449.37355 
L 523.82104 452.256432 
L 523.923467 453.143473 
L 523.603383 456.580757 
L 525.352737 459.316554 
L 526.347927 460.905081 
L 527.389383 464.437628 
L 527.5067 465.229405 
L 527.859577 466.835583 
L 528.362369 469.55373 
L 528.750797 470.728238 
L 529.820531 473.878054 
L 529.308094 477.993137 
L 529.271216 478.202378 
L 529.327684 478.377689 
L 529.520018 482.526703 
L 530.371031 485.219207 
L 530.78762 486.851027 
L 530.632104 488.935039 
L 530.503616 491.175351 
L 530.413494 493.794308 
L 530.427559 495.499676 
L 530.723459 497.741918 
L 531.023981 499.824 
L 531.925549 499.824 
L 536.918849 499.824 
L 538.972168 499.824 
L 538.67649 496.779676 
L 538.359773 495.499676 
L 538.605183 494.096167 
L 538.76733 491.175351 
L 539.625008 487.213907 
L 539.817644 486.851027 
L 539.709222 486.342283 
L 538.37359 482.526703 
L 538.45845 479.860036 
L 538.644721 478.202378 
L 538.916169 477.337514 
L 540.00196 473.878054 
L 539.262643 469.818484 
L 539.165834 469.55373 
L 539.204514 469.188294 
L 540.132359 465.229405 
L 540.335317 462.498253 
L 540.215951 460.905081 
L 540.555274 458.930933 
L 540.460608 456.580757 
L 539.261859 452.522545 
L 539.225278 452.256432 
L 539.09335 451.698455 
L 538.486513 447.932108 
L 538.647299 444.938345 
L 538.507626 443.607784 
L 536.746666 439.581689 
L 536.548975 439.283459 
L 536.726799 438.950819 
L 539.415499 434.959135 
L 535.420859 433.229405 
L 532.424879 431.499676 
L 531.658051 431.098131 
L 531.147373 430.634811 
L 531.484964 429.871695 
L 534.168303 426.310486 
L 531.613468 422.526703 
L 531.157349 421.986162 
L 529.320349 417.849852 
L 529.196653 417.661838 
L 529.290197 417.421598 
L 530.197099 413.337514 
L 528.199206 411.14308 
L 526.43292 409.013189 
L 525.743369 406.748067 
L 525.525686 404.688865 
L 524.212685 400.750641 
L 523.778587 400.364541 
L 520.792947 398.025152 
L 520.274517 396.040216 
L 519.683911 392.134375 
L 519.754381 391.715892 
L 519.555784 391.519332 
L 519.11665 391.15185 
L 516.153063 388.764369 
L 514.987494 387.391568 
L 514.044138 383.768485 
L 513.616784 383.067243 
L 511.328188 379.824 
L 509.781351 378.742919 
L 511.14698 377.347976 
L 510.633895 374.418595 
L 510.007592 373.462691 
L 508.427669 372.63799 
L 506.252452 371.318136 
L 505.348309 370.09427 
L 504.035343 366.509633 
L 503.260311 365.769946 
L 502.754167 362.811198 
L 502.662491 361.445622 
L 502.433873 360.634811 
L 500.467762 358.851027 
L 499.261048 357.481658 
L 498.993549 357.121297 
L 495.958188 354.55373 
L 493.726807 352.796973 
L 492.85298 351.283459 
L 490.657397 348.472649 
L 490.481162 346.742919 
L 491.028048 344.148324 
L 488.915082 340.806801 
L 487.562003 339.824 
L 486.066034 337.092848 
L 484.297153 335.499676 
L 483.41921 333.028633 
L 483.240878 331.175351 
L 480.600978 329.261306 
L 477.950358 326.851027 
L 477.64355 325.735072 
L 477.10328 322.526703 
L 475.988705 319.9527 
L 473.308554 318.202378 
L 472.45989 317.416138 
L 471.292625 316.966857 
L 469.016544 314.731539 
L 467.980743 313.878054 
L 466.692571 310.10813 
L 466.180438 309.55373 
L 463.095497 307.689797 
L 460.497007 305.229405 
L 460.211436 304.036488 
L 460.211436 300.905081 
L 458.29148 298.7133 
L 455.437278 296.580757 
L 454.818872 296.079386 
L 452.310161 292.736913 
L 451.984743 292.339593 
L 451.876715 292.256432 
L 448.882221 289.064669 
L 448.415161 287.932108 
L 445.531063 286.220396 
L 442.130788 283.607784 
L 442.129378 283.46364 
L 441.734075 283.067243 
L 439.206829 279.876994 
L 438.71729 279.283459 
L 438.205156 276.954977 
L 437.733761 274.959135 
L 437.231189 274.650255 
L 436.71997 274.382559 
L 432.291803 274.556872 
L 431.060897 273.229405 
L 429.280267 271.124357 
L 429.055114 270.634811 
L 427.020023 266.390567 
L 426.941425 266.310486 
L 423.723285 263.452035 
L 420.227608 261.986162 
L 420.075638 261.121297 
L 420.574968 257.661838 
L 417.883177 256.270101 
L 417.079658 257.661838 
L 414.583008 261.986162 
L 412.086358 266.310486 
L 409.589708 270.634811 
z
" clip-path="url(#p46786fcce5)" style="fill: #481f70"/>
    <path d="M 417.883177 256.270101 
L 420.574968 257.661838 
L 420.075638 261.121297 
L 420.227608 261.986162 
L 423.723285 263.452035 
L 426.941425 266.310486 
L 427.020023 266.390567 
L 429.055114 270.634811 
L 429.280267 271.124357 
L 431.060897 273.229405 
L 432.291803 274.556872 
L 436.71997 274.382559 
L 437.231189 274.650255 
L 437.733761 274.959135 
L 438.205156 276.954977 
L 438.71729 279.283459 
L 439.206829 279.876994 
L 441.734075 283.067243 
L 442.129378 283.46364 
L 442.130788 283.607784 
L 445.531063 286.220396 
L 448.415161 287.932108 
L 448.882221 289.064669 
L 451.876715 292.256432 
L 451.984743 292.339593 
L 452.310161 292.736913 
L 454.818872 296.079386 
L 455.437278 296.580757 
L 458.29148 298.7133 
L 460.211436 300.905081 
L 460.211436 304.036488 
L 460.497007 305.229405 
L 463.095497 307.689797 
L 466.180438 309.55373 
L 466.692571 310.10813 
L 467.980743 313.878054 
L 469.016544 314.731539 
L 471.292625 316.966857 
L 472.45989 317.416138 
L 473.308554 318.202378 
L 475.988705 319.9527 
L 477.10328 322.526703 
L 477.64355 325.735072 
L 477.950358 326.851027 
L 480.600978 329.261306 
L 483.240878 331.175351 
L 483.41921 333.028633 
L 484.297153 335.499676 
L 486.066034 337.092848 
L 487.562003 339.824 
L 488.915082 340.806801 
L 491.028048 344.148324 
L 490.481162 346.742919 
L 490.657397 348.472649 
L 492.85298 351.283459 
L 493.726807 352.796973 
L 495.958188 354.55373 
L 498.993549 357.121297 
L 499.261048 357.481658 
L 500.467762 358.851027 
L 502.433873 360.634811 
L 502.662491 361.445622 
L 502.754167 362.811198 
L 503.260311 365.769946 
L 504.035343 366.509633 
L 505.348309 370.09427 
L 506.252452 371.318136 
L 508.427669 372.63799 
L 510.007592 373.462691 
L 510.633895 374.418595 
L 511.14698 377.347976 
L 509.781351 378.742919 
L 511.328188 379.824 
L 513.616784 383.067243 
L 514.044138 383.768485 
L 514.987494 387.391568 
L 516.153063 388.764369 
L 519.11665 391.15185 
L 519.555784 391.519332 
L 519.754381 391.715892 
L 519.683911 392.134375 
L 520.274517 396.040216 
L 520.792947 398.025152 
L 523.778587 400.364541 
L 524.212685 400.750641 
L 525.525686 404.688865 
L 525.743369 406.748067 
L 526.43292 409.013189 
L 528.199206 411.14308 
L 530.197099 413.337514 
L 529.290197 417.421598 
L 529.196653 417.661838 
L 529.320349 417.849852 
L 531.157349 421.986162 
L 531.613468 422.526703 
L 534.168303 426.310486 
L 531.484964 429.871695 
L 531.147373 430.634811 
L 531.658051 431.098131 
L 532.424879 431.499676 
L 535.420859 433.229405 
L 539.415499 434.959135 
L 536.726799 438.950819 
L 536.548975 439.283459 
L 536.746666 439.581689 
L 538.507626 443.607784 
L 538.647299 444.938345 
L 538.486513 447.932108 
L 539.09335 451.698455 
L 539.225278 452.256432 
L 539.261859 452.522545 
L 540.460608 456.580757 
L 540.555274 458.930933 
L 540.215951 460.905081 
L 540.335317 462.498253 
L 540.132359 465.229405 
L 539.204514 469.188294 
L 539.165834 469.55373 
L 539.262643 469.818484 
L 540.00196 473.878054 
L 538.916169 477.337514 
L 538.644721 478.202378 
L 538.45845 479.860036 
L 538.37359 482.526703 
L 539.709222 486.342283 
L 539.817644 486.851027 
L 539.625008 487.213907 
L 538.76733 491.175351 
L 538.605183 494.096167 
L 538.359773 495.499676 
L 538.67649 496.779676 
L 538.972168 499.824 
L 541.912149 499.824 
L 545.136988 499.824 
L 545.666235 497.67762 
L 546.887487 495.499676 
L 546.3889 492.070039 
L 546.249394 491.175351 
L 546.562397 490.581169 
L 548.851656 486.851027 
L 548.528271 485.337514 
L 547.826198 482.526703 
L 547.455557 481.573885 
L 546.878012 478.202378 
L 547.593501 475.069797 
L 548.127584 473.878054 
L 549.554068 469.816949 
L 549.679504 469.55373 
L 549.688599 469.057496 
L 549.930586 465.229405 
L 549.972761 461.893498 
L 550.051633 460.905081 
L 550.170298 459.57452 
L 550.526543 456.580757 
L 550.064474 453.403702 
L 549.90923 452.256432 
L 552.152314 448.371297 
L 552.468159 447.932108 
L 552.468159 446.945859 
L 552.484918 443.607784 
L 552.501387 440.327262 
L 552.61943 439.283459 
L 552.546027 438.162338 
L 552.882277 434.959135 
L 553.355127 433.157333 
L 554.694996 430.634811 
L 554.964809 427.296736 
L 555.100973 426.310486 
L 555.187018 424.939359 
L 555.266322 421.986162 
L 555.764528 420.033241 
L 555.897806 417.661838 
L 557.416344 414.245622 
L 557.811866 413.337514 
L 558.989233 409.705081 
L 557.852297 409.013189 
L 558.989233 408.321297 
L 558.833886 404.688865 
L 558.170819 402.473967 
L 554.794862 401.056432 
L 554.182917 400.732568 
L 553.883264 400.364541 
L 553.729624 399.211387 
L 553.424478 396.040216 
L 553.615195 393.067243 
L 553.905858 391.715892 
L 553.701884 390.514691 
L 555.50502 387.391568 
L 552.710159 385.986162 
L 549.901428 383.067243 
L 552.52291 379.824 
L 553.696336 378.742919 
L 553.303113 376.310486 
L 550.576992 376.453571 
L 548.403438 376.148324 
L 547.737665 374.418595 
L 546.905448 370.09427 
L 543.821351 366.787434 
L 543.233904 365.769946 
L 543.640598 364.439385 
L 543.824476 361.445622 
L 543.064448 359.44978 
L 540.183699 358.451859 
L 538.97165 357.890066 
L 537.599753 357.121297 
L 538.647299 355.790736 
L 540.514025 352.796973 
L 538.416839 350.202378 
L 537.275513 348.472649 
L 535.099257 347.299951 
L 533.090653 346.166342 
L 530.760446 346.166342 
L 527.556412 344.148324 
L 527.14935 343.772296 
L 527.197851 339.824 
L 525.816725 337.431821 
L 522.563112 335.499676 
L 525.621509 333.229405 
L 528.08455 331.175351 
L 525.330625 329.625122 
L 522.854388 328.436613 
L 521.430373 327.731908 
L 519.323412 326.851027 
L 518.332678 324.448625 
L 515.447661 322.526703 
L 518.798004 321.410748 
L 521.539486 318.202378 
L 518.117547 316.172593 
L 515.882263 316.360537 
L 512.514097 317.229405 
L 510.882358 316.349097 
L 508.804401 315.006139 
L 505.931019 313.878054 
L 505.849429 311.475652 
L 506.245723 309.55373 
L 506.40424 308.592769 
L 508.831539 305.229405 
L 505.554686 303.337514 
L 503.502151 300.905081 
L 502.797968 299.46364 
L 500.429352 298.243958 
L 499.023271 297.352958 
L 495.308019 296.580757 
L 494.975132 295.715892 
L 496.064579 292.256432 
L 492.827071 290.787794 
L 490.481162 289.661838 
L 488.917223 288.9112 
L 487.720161 287.932108 
L 488.055845 285.461066 
L 488.939753 283.607784 
L 488.714303 280.614021 
L 488.431282 279.283459 
L 485.449453 277.620258 
L 482.286277 275.467879 
L 481.800503 275.291775 
L 481.558353 274.959135 
L 481.635889 274.341375 
L 482.101103 270.634811 
L 480.32812 269.193369 
L 477.733562 267.582347 
L 475.750929 268.472649 
L 473.367763 268.669209 
L 471.429804 267.308407 
L 470.644145 266.310486 
L 468.49215 263.747924 
L 465.284204 261.986162 
L 464.753781 261.574322 
L 462.887754 257.661838 
L 462.389229 257.021197 
L 460.592697 255.190795 
L 459.210623 253.878054 
L 455.77773 253.337514 
L 455.361622 251.896072 
L 456.312726 249.013189 
L 456.572119 248.226948 
L 457.026055 244.688865 
L 454.864776 244.107985 
L 454.030075 243.824 
L 450.534765 242.959135 
L 448.142627 242.275288 
L 446.127218 241.944582 
L 442.374663 240.933531 
L 441.834576 240.731009 
L 441.437217 240.364541 
L 439.006756 236.980287 
L 437.171744 236.040216 
L 436.387083 232.869045 
L 435.626199 231.715892 
L 433.019807 230.05269 
L 432.059557 231.715892 
L 429.562907 236.040216 
L 427.066257 240.364541 
L 424.569607 244.688865 
L 422.072958 249.013189 
L 419.576308 253.337514 
z
" clip-path="url(#p46786fcce5)" style="fill: #3b528b"/>
    <path d="M 433.019807 230.05269 
L 435.626199 231.715892 
L 436.387083 232.869045 
L 437.171744 236.040216 
L 439.006756 236.980287 
L 441.437217 240.364541 
L 441.834576 240.731009 
L 442.374663 240.933531 
L 446.127218 241.944582 
L 448.142627 242.275288 
L 450.534765 242.959135 
L 454.030075 243.824 
L 454.864776 244.107985 
L 457.026055 244.688865 
L 456.572119 248.226948 
L 456.312726 249.013189 
L 455.361622 251.896072 
L 455.77773 253.337514 
L 459.210623 253.878054 
L 460.592697 255.190795 
L 462.389229 257.021197 
L 462.887754 257.661838 
L 464.753781 261.574322 
L 465.284204 261.986162 
L 468.49215 263.747924 
L 470.644145 266.310486 
L 471.429804 267.308407 
L 473.367763 268.669209 
L 475.750929 268.472649 
L 477.733562 267.582347 
L 480.32812 269.193369 
L 482.101103 270.634811 
L 481.635889 274.341375 
L 481.558353 274.959135 
L 481.800503 275.291775 
L 482.286277 275.467879 
L 485.449453 277.620258 
L 488.431282 279.283459 
L 488.714303 280.614021 
L 488.939753 283.607784 
L 488.055845 285.461066 
L 487.720161 287.932108 
L 488.917223 288.9112 
L 490.481162 289.661838 
L 492.827071 290.787794 
L 496.064579 292.256432 
L 494.975132 295.715892 
L 495.308019 296.580757 
L 499.023271 297.352958 
L 500.429352 298.243958 
L 502.797968 299.46364 
L 503.502151 300.905081 
L 505.554686 303.337514 
L 508.831539 305.229405 
L 506.40424 308.592769 
L 506.245723 309.55373 
L 505.849429 311.475652 
L 505.931019 313.878054 
L 508.804401 315.006139 
L 510.882358 316.349097 
L 512.514097 317.229405 
L 515.882263 316.360537 
L 518.117547 316.172593 
L 521.539486 318.202378 
L 518.798004 321.410748 
L 515.447661 322.526703 
L 518.332678 324.448625 
L 519.323412 326.851027 
L 521.430373 327.731908 
L 522.854388 328.436613 
L 525.330625 329.625122 
L 528.08455 331.175351 
L 525.621509 333.229405 
L 522.563112 335.499676 
L 525.816725 337.431821 
L 527.197851 339.824 
L 527.14935 343.772296 
L 527.556412 344.148324 
L 530.760446 346.166342 
L 533.090653 346.166342 
L 535.099257 347.299951 
L 537.275513 348.472649 
L 538.416839 350.202378 
L 540.514025 352.796973 
L 538.647299 355.790736 
L 537.599753 357.121297 
L 538.97165 357.890066 
L 540.183699 358.451859 
L 543.064448 359.44978 
L 543.824476 361.445622 
L 543.640598 364.439385 
L 543.233904 365.769946 
L 543.821351 366.787434 
L 546.905448 370.09427 
L 547.737665 374.418595 
L 548.403438 376.148324 
L 550.576992 376.453571 
L 553.303113 376.310486 
L 553.696336 378.742919 
L 552.52291 379.824 
L 549.901428 383.067243 
L 552.710159 385.986162 
L 555.50502 387.391568 
L 553.701884 390.514691 
L 553.905858 391.715892 
L 553.615195 393.067243 
L 553.424478 396.040216 
L 553.729624 399.211387 
L 553.883264 400.364541 
L 554.182917 400.732568 
L 554.794862 401.056432 
L 558.170819 402.473967 
L 558.833886 404.688865 
L 558.989233 408.321297 
L 557.852297 409.013189 
L 558.989233 409.705081 
L 557.811866 413.337514 
L 557.416344 414.245622 
L 555.897806 417.661838 
L 555.764528 420.033241 
L 555.266322 421.986162 
L 555.187018 424.939359 
L 555.100973 426.310486 
L 554.964809 427.296736 
L 554.694996 430.634811 
L 553.355127 433.157333 
L 552.882277 434.959135 
L 552.546027 438.162338 
L 552.61943 439.283459 
L 552.501387 440.327262 
L 552.484918 443.607784 
L 552.468159 446.945859 
L 552.468159 447.932108 
L 552.152314 448.371297 
L 549.90923 452.256432 
L 550.064474 453.403702 
L 550.526543 456.580757 
L 550.170298 459.57452 
L 550.051633 460.905081 
L 549.972761 461.893498 
L 549.930586 465.229405 
L 549.688599 469.057496 
L 549.679504 469.55373 
L 549.554068 469.816949 
L 548.127584 473.878054 
L 547.593501 475.069797 
L 546.878012 478.202378 
L 547.455557 481.573885 
L 547.826198 482.526703 
L 548.528271 485.337514 
L 548.851656 486.851027 
L 546.562397 490.581169 
L 546.249394 491.175351 
L 546.3889 492.070039 
L 546.887487 495.499676 
L 545.666235 497.67762 
L 545.136988 499.824 
L 546.905448 499.824 
L 551.898748 499.824 
L 554.877207 499.824 
L 555.491488 497.39816 
L 556.392717 495.499676 
L 557.434797 492.115422 
L 557.605376 491.175351 
L 558.675369 488.086548 
L 559.108699 486.851027 
L 558.983835 486.149785 
L 558.36626 482.526703 
L 560.235775 479.66956 
L 560.574606 478.202378 
L 560.454683 476.356038 
L 559.611612 473.878054 
L 560.516217 471.50665 
L 561.507067 469.55373 
L 560.786821 467.132108 
L 560.316024 465.229405 
L 560.880598 463.489129 
L 561.479908 460.905081 
L 561.835414 456.667243 
L 561.827953 456.580757 
L 561.792879 456.420597 
L 561.191833 452.256432 
L 562.038203 448.196863 
L 562.065828 447.932108 
L 564.840565 444.402047 
L 565.246222 443.607784 
L 565.156819 442.265752 
L 565.227969 439.283459 
L 565.062901 436.138496 
L 565.342247 434.959135 
L 566.165318 431.870332 
L 566.593315 430.634811 
L 566.698166 430.322209 
L 567.975306 426.310486 
L 568.54308 424.869045 
L 569.967286 421.986162 
L 570.38201 419.405517 
L 570.879302 417.661838 
L 572.794621 414.935633 
L 573.697454 413.337514 
L 572.96023 411.452552 
L 572.006175 409.013189 
L 572.506688 405.788269 
L 572.466387 404.688865 
L 574.871518 401.235627 
L 575.855962 400.364541 
L 575.824975 397.842018 
L 575.802842 396.040216 
L 576.097046 394.709655 
L 577.825496 391.715892 
L 577.751154 388.926005 
L 578.310675 387.391568 
L 580.4243 384.907381 
L 580.5651 383.067243 
L 582.229669 379.385724 
L 582.666285 378.742919 
L 585.177621 375.843078 
L 586.039682 374.418595 
L 587.02111 370.387445 
L 587.089621 370.09427 
L 589.764603 366.490667 
L 590.399716 365.769946 
L 591.567739 361.926102 
L 591.693833 361.445622 
L 591.772778 361.320279 
L 593.09347 359.283459 
L 594.400539 357.223046 
L 594.530221 357.121297 
L 597.06136 353.183073 
L 597.268901 352.796973 
L 599.425881 348.629897 
L 599.493612 348.472649 
L 599.6125 347.992168 
L 600.056349 344.148324 
L 601.048481 342.791674 
L 603.597667 339.824 
L 603.773583 338.863039 
L 604.161951 335.499676 
L 605.576719 333.337514 
L 607.052012 331.175351 
L 608.073369 329.013189 
L 610.523784 326.851027 
L 611.235792 325.842018 
L 613.423332 322.526703 
L 612.927965 320.1243 
L 612.726216 318.202378 
L 615.527652 315.97844 
L 617.579843 313.878054 
L 618.505798 312.488093 
L 621.32939 309.55373 
L 620.972726 308.112288 
L 620.176693 305.229405 
L 622.477117 302.069322 
L 623.861007 300.905081 
L 625.133809 298.022198 
L 625.966026 296.580757 
L 627.511571 293.491954 
L 629.294892 292.256432 
L 628.795562 288.796973 
L 628.67073 287.932108 
L 628.982811 287.391568 
L 630.543217 285.769946 
L 632.041207 284.040216 
L 633.039867 283.607784 
L 635.536517 281.445622 
L 636.428177 279.283459 
L 636.160679 276.040216 
L 635.536517 274.959135 
L 635.952625 273.517694 
L 639.281491 270.634811 
L 636.784841 266.310486 
L 631.791542 266.310486 
L 636.784841 266.310486 
L 634.288192 253.337514 
L 631.791542 249.013189 
L 626.798242 249.013189 
L 624.301592 244.688865 
L 626.798242 240.364541 
L 624.301592 236.040216 
L 621.804943 231.715892 
L 619.308293 227.391568 
L 614.314993 227.391568 
L 609.321693 227.391568 
L 611.818343 223.067243 
L 614.314993 218.742919 
L 604.328394 201.445622 
L 601.831744 205.769946 
L 604.328394 201.445622 
L 601.831744 197.121297 
L 599.335094 192.796973 
L 596.838444 188.472649 
L 591.845145 188.472649 
L 594.341795 184.148324 
L 591.845145 179.824 
L 589.348495 175.499676 
L 584.355195 175.499676 
L 581.858546 171.175351 
L 579.361896 166.851027 
L 586.851845 171.175351 
L 571.871946 145.229405 
L 574.368596 158.202378 
L 571.871946 162.526703 
L 569.375296 158.202378 
L 571.871946 153.878054 
L 571.871946 145.229405 
L 569.375296 140.905081 
L 564.381997 140.905081 
L 559.388697 140.905081 
L 554.395398 140.905081 
L 559.388697 140.905081 
L 561.885097 136.581189 
L 564.381747 132.256865 
L 561.885097 127.932541 
L 559.388448 123.608216 
L 556.891798 119.283892 
L 551.898498 119.283892 
L 546.905199 119.283892 
L 541.911899 119.283892 
L 536.918599 119.283892 
L 531.9253 119.283892 
L 526.932 119.283892 
L 524.43535 114.959568 
L 519.442051 114.959568 
L 524.43535 114.959568 
L 529.42865 114.959568 
L 534.421949 114.959568 
L 539.415249 114.959568 
L 544.408549 114.959568 
L 549.401848 114.959568 
L 551.898498 110.635243 
L 549.401848 106.310919 
L 544.408549 106.310919 
L 539.415249 106.310919 
L 534.421949 106.310919 
L 529.42865 106.310919 
L 534.421949 106.310919 
L 539.415249 106.310919 
L 541.911899 101.986595 
L 539.415249 97.66227 
L 534.421949 97.66227 
L 531.9253 93.337946 
L 526.932 93.337946 
L 521.9387 93.337946 
L 516.945401 93.337946 
L 511.952101 93.337946 
L 509.455451 97.66227 
L 506.958801 101.986595 
L 504.462152 106.310919 
L 501.965502 110.635243 
L 499.468852 114.959568 
L 496.972202 119.283892 
L 494.475552 123.608216 
L 491.978903 127.932541 
L 489.482253 132.256865 
L 486.985603 136.581189 
L 484.489203 140.905081 
L 481.992553 145.229405 
L 479.495903 149.55373 
L 476.999253 153.878054 
L 474.502604 158.202378 
L 472.005954 162.526703 
L 469.509304 166.851027 
L 467.012654 171.175351 
L 464.516004 175.499676 
L 462.019355 179.824 
L 459.522705 184.148324 
L 457.026055 188.472649 
L 454.529405 192.796973 
L 452.032755 197.121297 
L 449.536105 201.445622 
L 447.039456 205.769946 
L 444.542806 210.09427 
L 442.046156 214.418595 
L 439.549506 218.742919 
L 437.052856 223.067243 
L 434.556207 227.391568 
z
M 591.845145 197.121297 
L 586.851845 197.121297 
z
M 616.811643 249.013189 
" clip-path="url(#p46786fcce5)" style="fill: #287c8e"/>
    <path d="M 511.952101 93.337946 
L 516.945401 93.337946 
L 521.9387 93.337946 
L 526.932 93.337946 
L 531.9253 93.337946 
L 534.421949 97.66227 
L 539.415249 97.66227 
L 541.911899 101.986595 
L 539.415249 106.310919 
L 534.421949 106.310919 
L 529.42865 106.310919 
L 534.421949 106.310919 
L 539.415249 106.310919 
L 544.408549 106.310919 
L 549.401848 106.310919 
L 551.898498 110.635243 
L 549.401848 114.959568 
L 544.408549 114.959568 
L 539.415249 114.959568 
L 534.421949 114.959568 
L 529.42865 114.959568 
L 524.43535 114.959568 
L 519.442051 114.959568 
L 524.43535 114.959568 
L 526.932 119.283892 
L 531.9253 119.283892 
L 536.918599 119.283892 
L 541.911899 119.283892 
L 546.905199 119.283892 
L 551.898498 119.283892 
L 556.891798 119.283892 
L 559.388448 123.608216 
L 561.885097 127.932541 
L 564.381747 132.256865 
L 561.885097 136.581189 
L 559.388697 140.905081 
L 554.395398 140.905081 
L 559.388697 140.905081 
L 564.381997 140.905081 
L 569.375296 140.905081 
L 571.871946 145.229405 
L 571.871946 153.878054 
L 569.375296 158.202378 
L 571.871946 162.526703 
L 574.368596 158.202378 
L 571.871946 145.229405 
L 586.851845 171.175351 
L 579.361896 166.851027 
L 581.858546 171.175351 
L 584.355195 175.499676 
L 589.348495 175.499676 
L 591.845145 179.824 
L 594.341795 184.148324 
L 591.845145 188.472649 
L 596.838444 188.472649 
L 599.335094 192.796973 
L 601.831744 197.121297 
L 604.328394 201.445622 
L 601.831744 205.769946 
L 604.328394 201.445622 
L 614.314993 218.742919 
L 611.818343 223.067243 
L 609.321693 227.391568 
L 614.314993 227.391568 
L 619.308293 227.391568 
L 621.804943 231.715892 
L 624.301592 236.040216 
L 626.798242 240.364541 
L 624.301592 244.688865 
L 626.798242 249.013189 
L 631.791542 249.013189 
L 634.288192 253.337514 
L 636.784841 266.310486 
L 631.791542 266.310486 
L 636.784841 266.310486 
L 639.281491 270.634811 
L 635.952625 273.517694 
L 635.536517 274.959135 
L 636.160679 276.040216 
L 636.428177 279.283459 
L 635.536517 281.445622 
L 633.039867 283.607784 
L 632.041207 284.040216 
L 630.543217 285.769946 
L 628.982811 287.391568 
L 628.67073 287.932108 
L 628.795562 288.796973 
L 629.294892 292.256432 
L 627.511571 293.491954 
L 625.966026 296.580757 
L 625.133809 298.022198 
L 623.861007 300.905081 
L 622.477117 302.069322 
L 620.176693 305.229405 
L 620.972726 308.112288 
L 621.32939 309.55373 
L 618.505798 312.488093 
L 617.579843 313.878054 
L 615.527652 315.97844 
L 612.726216 318.202378 
L 612.927965 320.1243 
L 613.423332 322.526703 
L 611.235792 325.842018 
L 610.523784 326.851027 
L 608.073369 329.013189 
L 607.052012 331.175351 
L 605.576719 333.337514 
L 604.161951 335.499676 
L 603.773583 338.863039 
L 603.597667 339.824 
L 601.048481 342.791674 
L 600.056349 344.148324 
L 599.6125 347.992168 
L 599.493612 348.472649 
L 599.425881 348.629897 
L 597.268901 352.796973 
L 597.06136 353.183073 
L 594.530221 357.121297 
L 594.400539 357.223046 
L 593.09347 359.283459 
L 591.772778 361.320279 
L 591.693833 361.445622 
L 591.567739 361.926102 
L 590.399716 365.769946 
L 589.764603 366.490667 
L 587.089621 370.09427 
L 587.02111 370.387445 
L 586.039682 374.418595 
L 585.177621 375.843078 
L 582.666285 378.742919 
L 582.229669 379.385724 
L 580.5651 383.067243 
L 580.4243 384.907381 
L 578.310675 387.391568 
L 577.751154 388.926005 
L 577.825496 391.715892 
L 576.097046 394.709655 
L 575.802842 396.040216 
L 575.824975 397.842018 
L 575.855962 400.364541 
L 574.871518 401.235627 
L 572.466387 404.688865 
L 572.506688 405.788269 
L 572.006175 409.013189 
L 572.96023 411.452552 
L 573.697454 413.337514 
L 572.794621 414.935633 
L 570.879302 417.661838 
L 570.38201 419.405517 
L 569.967286 421.986162 
L 568.54308 424.869045 
L 567.975306 426.310486 
L 566.698166 430.322209 
L 566.593315 430.634811 
L 566.165318 431.870332 
L 565.342247 434.959135 
L 565.062901 436.138496 
L 565.227969 439.283459 
L 565.156819 442.265752 
L 565.246222 443.607784 
L 564.840565 444.402047 
L 562.065828 447.932108 
L 562.038203 448.196863 
L 561.191833 452.256432 
L 561.792879 456.420597 
L 561.827953 456.580757 
L 561.835414 456.667243 
L 561.479908 460.905081 
L 560.880598 463.489129 
L 560.316024 465.229405 
L 560.786821 467.132108 
L 561.507067 469.55373 
L 560.516217 471.50665 
L 559.611612 473.878054 
L 560.454683 476.356038 
L 560.574606 478.202378 
L 560.235775 479.66956 
L 558.36626 482.526703 
L 558.983835 486.149785 
L 559.108699 486.851027 
L 558.675369 488.086548 
L 557.605376 491.175351 
L 557.434797 492.115422 
L 556.392717 495.499676 
L 555.491488 497.39816 
L 554.877207 499.824 
L 556.892047 499.824 
L 561.885347 499.824 
L 566.878647 499.824 
L 571.158618 499.824 
L 571.479215 499.143769 
L 574.056515 496.040216 
L 574.425338 495.597956 
L 574.426997 495.499676 
L 574.409525 495.428785 
L 572.948932 491.175351 
L 572.86459 489.456042 
L 571.126194 486.851027 
L 572.99681 484.475025 
L 573.38843 482.526703 
L 573.919199 478.980757 
L 573.432352 478.202378 
L 570.592413 476.09427 
L 570.469718 473.878054 
L 571.151083 472.629482 
L 574.004501 470.18436 
L 574.523256 469.821608 
L 574.875163 469.55373 
L 574.601617 469.150126 
L 572.397557 465.229405 
L 572.585275 463.993884 
L 573.492579 460.905081 
L 573.766994 459.863075 
L 576.011129 456.580757 
L 574.956043 453.273921 
L 574.72526 452.256432 
L 577.161459 448.445164 
L 577.291503 447.932108 
L 579.706261 444.204242 
L 580.092623 443.607784 
L 582.323039 440.087985 
L 582.690762 439.283459 
L 582.246375 438.61172 
L 580.92956 437.674409 
L 578.81827 435.900722 
L 577.737569 434.959135 
L 578.398902 433.291181 
L 579.305154 430.634811 
L 580.700306 428.628681 
L 581.932703 426.310486 
L 581.680213 422.295042 
L 581.71588 421.986162 
L 581.692102 421.697874 
L 582.993386 417.661838 
L 583.921892 416.911335 
L 585.759561 413.337514 
L 586.123656 412.076252 
L 588.822884 409.013189 
L 589.059028 408.511818 
L 589.57141 404.688865 
L 589.194855 400.630653 
L 589.089103 400.364541 
L 589.176312 400.066311 
L 589.681382 399.787964 
L 592.677361 397.481658 
L 593.447932 396.040216 
L 594.008908 392.292468 
L 594.078989 391.715892 
L 594.201138 391.472268 
L 595.827896 387.391568 
L 596.080533 386.078826 
L 596.806841 383.067243 
L 597.670661 380.18436 
L 598.328982 378.742919 
L 599.939122 375.464802 
L 601.359405 374.418595 
L 602.759071 371.700448 
L 602.815273 370.09427 
L 604.907327 366.772688 
L 605.894919 365.769946 
L 608.017473 363.510971 
L 609.174832 361.445622 
L 609.044288 357.601778 
L 609.160619 357.121297 
L 609.231724 356.965466 
L 609.737802 356.400577 
L 612.385764 353.779774 
L 613.601665 352.796973 
L 615.545736 350.604358 
L 616.527214 348.472649 
L 617.917754 346.064164 
L 619.111189 344.148324 
L 620.421664 341.752415 
L 621.696393 339.824 
L 623.1032 337.748324 
L 625.162506 335.499676 
L 625.315856 332.932108 
L 625.256194 331.175351 
L 627.818379 328.617955 
L 631.746959 326.928247 
L 631.825742 326.910264 
L 631.872079 326.851027 
L 631.88401 326.690867 
L 632.760829 322.526703 
L 633.604898 321.343203 
L 636.447456 318.202378 
L 636.611463 317.902078 
L 637.51915 316.930518 
L 639.709488 314.619367 
L 640.217735 313.878054 
L 642.446259 310.710943 
L 643.413877 309.55373 
L 645.664971 307.637268 
L 648.493268 305.229405 
L 648.987217 304.742919 
L 650.87308 302.449483 
L 651.92686 301.185881 
L 652.195197 300.905081 
L 652.805011 299.103279 
L 653.795349 296.580757 
L 654.071428 296.251732 
L 654.58503 296.020196 
L 657.752468 293.978833 
L 656.75804 292.256432 
L 654.26139 287.932108 
L 651.76474 283.607784 
L 649.26809 279.283459 
L 646.771441 274.959135 
L 644.274791 270.634811 
L 634.288192 253.337514 
L 631.791542 249.013189 
L 629.294892 244.688865 
L 626.798242 240.364541 
L 624.301592 236.040216 
L 621.804943 231.715892 
L 619.308293 227.391568 
L 616.811643 223.067243 
L 614.314993 218.742919 
L 604.328394 201.445622 
L 601.831744 197.121297 
L 599.335094 192.796973 
L 596.838444 188.472649 
L 594.341795 184.148324 
L 591.845145 179.824 
L 589.348495 175.499676 
L 586.851845 171.175351 
L 571.871946 145.229405 
L 569.375296 140.905081 
L 526.932 67.392 
L 524.43535 71.716324 
L 521.9387 76.040649 
L 519.442051 80.364973 
L 516.945401 84.689297 
L 514.448751 89.013622 
z
M 591.845145 197.121297 
L 586.851845 197.121297 
z
M 616.811643 249.013189 
" clip-path="url(#p46786fcce5)" style="fill: #20a486"/>
    <path d="M 657.752468 293.978833 
L 654.58503 296.020196 
L 654.071428 296.251732 
L 653.795349 296.580757 
L 652.805011 299.103279 
L 652.195197 300.905081 
L 651.92686 301.185881 
L 650.87308 302.449483 
L 648.987217 304.742919 
L 648.493268 305.229405 
L 645.664971 307.637268 
L 643.413877 309.55373 
L 642.446259 310.710943 
L 640.217735 313.878054 
L 639.709488 314.619367 
L 637.51915 316.930518 
L 636.611463 317.902078 
L 636.447456 318.202378 
L 633.604898 321.343203 
L 632.760829 322.526703 
L 631.88401 326.690867 
L 631.872079 326.851027 
L 631.825742 326.910264 
L 631.746959 326.928247 
L 627.818379 328.617955 
L 625.256194 331.175351 
L 625.315856 332.932108 
L 625.162506 335.499676 
L 623.1032 337.748324 
L 621.696393 339.824 
L 620.421664 341.752415 
L 619.111189 344.148324 
L 617.917754 346.064164 
L 616.527214 348.472649 
L 615.545736 350.604358 
L 613.601665 352.796973 
L 612.385764 353.779774 
L 609.737802 356.400577 
L 609.231724 356.965466 
L 609.160619 357.121297 
L 609.044288 357.601778 
L 609.174832 361.445622 
L 608.017473 363.510971 
L 605.894919 365.769946 
L 604.907327 366.772688 
L 602.815273 370.09427 
L 602.759071 371.700448 
L 601.359405 374.418595 
L 599.939122 375.464802 
L 598.328982 378.742919 
L 597.670661 380.18436 
L 596.806841 383.067243 
L 596.080533 386.078826 
L 595.827896 387.391568 
L 594.201138 391.472268 
L 594.078989 391.715892 
L 594.008908 392.292468 
L 593.447932 396.040216 
L 592.677361 397.481658 
L 589.681382 399.787964 
L 589.176312 400.066311 
L 589.089103 400.364541 
L 589.194855 400.630653 
L 589.57141 404.688865 
L 589.059028 408.511818 
L 588.822884 409.013189 
L 586.123656 412.076252 
L 585.759561 413.337514 
L 583.921892 416.911335 
L 582.993386 417.661838 
L 581.692102 421.697874 
L 581.71588 421.986162 
L 581.680213 422.295042 
L 581.932703 426.310486 
L 580.700306 428.628681 
L 579.305154 430.634811 
L 578.398902 433.291181 
L 577.737569 434.959135 
L 578.81827 435.900722 
L 580.92956 437.674409 
L 582.246375 438.61172 
L 582.690762 439.283459 
L 582.323039 440.087985 
L 580.092623 443.607784 
L 579.706261 444.204242 
L 577.291503 447.932108 
L 577.161459 448.445164 
L 574.72526 452.256432 
L 574.956043 453.273921 
L 576.011129 456.580757 
L 573.766994 459.863075 
L 573.492579 460.905081 
L 572.585275 463.993884 
L 572.397557 465.229405 
L 574.601617 469.150126 
L 574.875163 469.55373 
L 574.523256 469.821608 
L 574.004501 470.18436 
L 571.151083 472.629482 
L 570.469718 473.878054 
L 570.592413 476.09427 
L 573.432352 478.202378 
L 573.919199 478.980757 
L 573.38843 482.526703 
L 572.99681 484.475025 
L 571.126194 486.851027 
L 572.86459 489.456042 
L 572.948932 491.175351 
L 574.409525 495.428785 
L 574.426997 495.499676 
L 574.425338 495.597956 
L 574.056515 496.040216 
L 571.479215 499.143769 
L 571.158618 499.824 
L 571.871946 499.824 
L 576.865246 499.824 
L 581.858546 499.824 
L 586.851845 499.824 
L 587.921838 499.824 
L 590.642379 497.740749 
L 592.230806 495.499676 
L 591.318074 492.088264 
L 590.429134 491.175351 
L 589.201633 487.105399 
L 589.156445 486.851027 
L 589.09883 486.418595 
L 589.176312 482.526703 
L 590.16262 479.612484 
L 590.639866 478.202378 
L 592.999845 475.878054 
L 595.950747 473.878054 
L 593.28852 471.378054 
L 591.976547 469.55373 
L 593.760678 468.547206 
L 595.265213 467.954322 
L 597.757212 466.820757 
L 598.578534 465.229405 
L 598.433526 462.466643 
L 595.366061 462.679163 
L 593.681524 462.048704 
L 590.868195 460.905081 
L 592.711329 458.081033 
L 595.821291 458.342519 
L 597.982742 458.562739 
L 598.700353 456.580757 
L 597.44203 455.535316 
L 595.081543 452.256432 
L 597.354993 448.826796 
L 598.97843 447.932108 
L 597.883554 446.121926 
L 596.887398 443.607784 
L 598.277192 441.775443 
L 600.979229 439.283459 
L 601.578461 438.84476 
L 602.626133 437.907538 
L 604.834472 435.835687 
L 605.8888 434.959135 
L 604.871144 434.019065 
L 603.158089 432.932108 
L 601.29449 431.565362 
L 600.856042 430.634811 
L 601.233955 429.599409 
L 603.403709 427.912088 
L 604.718495 426.986162 
L 605.174716 426.310486 
L 604.90901 425.30483 
L 604.16732 421.986162 
L 605.428612 419.567472 
L 606.528831 417.661838 
L 606.967709 413.584618 
L 607.000247 413.337514 
L 606.953077 413.115753 
L 606.644127 409.013189 
L 608.234917 407.130836 
L 610.887389 404.688865 
L 611.076096 403.403255 
L 611.771237 400.364541 
L 612.068008 396.472649 
L 612.817003 396.040216 
L 614.939156 392.796973 
L 614.706624 391.715892 
L 614.608717 391.207148 
L 614.355922 387.391568 
L 615.851393 385.728366 
L 618.553492 384.374597 
L 620.029547 384.316492 
L 620.660645 383.067243 
L 621.62661 379.051799 
L 621.717341 378.742919 
L 621.638499 378.454631 
L 620.602852 374.418595 
L 623.053267 372.256432 
L 625.19023 370.09427 
L 625.935763 368.600413 
L 629.159938 365.769946 
L 629.244959 365.683459 
L 629.606973 365.229405 
L 632.141073 362.051027 
L 632.644056 361.445622 
L 632.956645 359.427604 
L 633.359206 357.121297 
L 633.762581 356.210913 
L 634.617938 352.796973 
L 635.827792 351.139315 
L 638.137193 348.472649 
L 638.627607 347.340088 
L 639.40844 344.148324 
L 640.955715 342.723841 
L 643.775461 340.688865 
L 644.528074 340.2627 
L 645.333976 339.824 
L 647.792797 337.268717 
L 649.136688 335.499676 
L 651.00818 334.189274 
L 653.228294 331.175351 
L 652.26407 327.715892 
L 652.139238 326.851027 
L 655.16535 324.092406 
L 657.438944 322.526703 
L 658.699879 321.565742 
L 660.437313 318.202378 
L 661.183919 317.219577 
L 664.247989 313.878054 
L 667.721589 311.245857 
L 666.744639 309.55373 
L 664.247989 305.229405 
L 661.75134 300.905081 
L 659.25469 296.580757 
z
" clip-path="url(#p46786fcce5)" style="fill: #5ec962"/>
    <path d="M 667.721589 311.245857 
L 664.247989 313.878054 
L 661.183919 317.219577 
L 660.437313 318.202378 
L 658.699879 321.565742 
L 657.438944 322.526703 
L 655.16535 324.092406 
L 652.139238 326.851027 
L 652.26407 327.715892 
L 653.228294 331.175351 
L 651.00818 334.189274 
L 649.136688 335.499676 
L 647.792797 337.268717 
L 645.333976 339.824 
L 644.528074 340.2627 
L 643.775461 340.688865 
L 640.955715 342.723841 
L 639.40844 344.148324 
L 638.627607 347.340088 
L 638.137193 348.472649 
L 635.827792 351.139315 
L 634.617938 352.796973 
L 633.762581 356.210913 
L 633.359206 357.121297 
L 632.956645 359.427604 
L 632.644056 361.445622 
L 632.141073 362.051027 
L 629.606973 365.229405 
L 629.244959 365.683459 
L 629.159938 365.769946 
L 625.935763 368.600413 
L 625.19023 370.09427 
L 623.053267 372.256432 
L 620.602852 374.418595 
L 621.638499 378.454631 
L 621.717341 378.742919 
L 621.62661 379.051799 
L 620.660645 383.067243 
L 620.029547 384.316492 
L 618.553492 384.374597 
L 615.851393 385.728366 
L 614.355922 387.391568 
L 614.608717 391.207148 
L 614.706624 391.715892 
L 614.939156 392.796973 
L 612.817003 396.040216 
L 612.068008 396.472649 
L 611.771237 400.364541 
L 611.076096 403.403255 
L 610.887389 404.688865 
L 608.234917 407.130836 
L 606.644127 409.013189 
L 606.953077 413.115753 
L 607.000247 413.337514 
L 606.967709 413.584618 
L 606.528831 417.661838 
L 605.428612 419.567472 
L 604.16732 421.986162 
L 604.90901 425.30483 
L 605.174716 426.310486 
L 604.718495 426.986162 
L 603.403709 427.912088 
L 601.233955 429.599409 
L 600.856042 430.634811 
L 601.29449 431.565362 
L 603.158089 432.932108 
L 604.871144 434.019065 
L 605.8888 434.959135 
L 604.834472 435.835687 
L 602.626133 437.907538 
L 601.578461 438.84476 
L 600.979229 439.283459 
L 598.277192 441.775443 
L 596.887398 443.607784 
L 597.883554 446.121926 
L 598.97843 447.932108 
L 597.354993 448.826796 
L 595.081543 452.256432 
L 597.44203 455.535316 
L 598.700353 456.580757 
L 597.982742 458.562739 
L 595.821291 458.342519 
L 592.711329 458.081033 
L 590.868195 460.905081 
L 593.681524 462.048704 
L 595.366061 462.679163 
L 598.433526 462.466643 
L 598.578534 465.229405 
L 597.757212 466.820757 
L 595.265213 467.954322 
L 593.760678 468.547206 
L 591.976547 469.55373 
L 593.28852 471.378054 
L 595.950747 473.878054 
L 592.999845 475.878054 
L 590.639866 478.202378 
L 590.16262 479.612484 
L 589.176312 482.526703 
L 589.09883 486.418595 
L 589.156445 486.851027 
L 589.201633 487.105399 
L 590.429134 491.175351 
L 591.318074 492.088264 
L 592.230806 495.499676 
L 590.642379 497.740749 
L 587.921838 499.824 
L 591.845145 499.824 
L 596.838444 499.824 
L 601.831744 499.824 
L 606.825044 499.824 
L 611.818343 499.824 
L 616.811643 499.824 
L 619.308293 499.824 
L 620.096708 496.865252 
L 622.832975 495.499676 
L 620.506685 493.424 
L 619.950288 491.175351 
L 621.203897 490.13431 
L 622.002046 486.851027 
L 622.401968 483.56078 
L 623.374265 482.526703 
L 623.420422 479.72861 
L 623.469376 478.202378 
L 622.161607 474.495815 
L 621.971386 473.878054 
L 625.591528 471.787964 
L 626.544959 469.55373 
L 625.761897 467.024408 
L 623.659597 465.229405 
L 623.714145 461.922569 
L 623.696344 460.905081 
L 624.089112 460.537053 
L 624.564398 460.449889 
L 629.156189 460.664841 
L 630.939027 456.580757 
L 631.188902 455.536954 
L 633.218199 452.256432 
L 630.515476 450.142318 
L 628.202608 447.932108 
L 630.619645 445.902323 
L 631.355619 443.607784 
L 631.533268 439.730803 
L 630.639242 439.283459 
L 628.358648 436.580757 
L 628.925018 434.959135 
L 628.740081 433.998174 
L 629.627779 434.382559 
L 633.125368 432.945066 
L 635.920616 432.131692 
L 637.465746 431.814172 
L 640.241741 430.634811 
L 637.741005 428.978687 
L 635.120408 427.751928 
L 633.82007 427.121297 
L 632.623758 426.310486 
L 633.664029 425.229405 
L 635.876969 421.986162 
L 636.428177 421.368402 
L 638.449275 419.103279 
L 639.489545 418.022198 
L 639.836302 417.661838 
L 639.675699 416.97905 
L 638.924827 413.337514 
L 640.636815 411.36068 
L 643.593886 409.013189 
L 643.96271 408.472649 
L 645.811191 404.688865 
L 646.291316 403.857264 
L 648.643928 400.364541 
L 647.395603 397.121297 
L 647.034246 396.040216 
L 650.315073 393.529318 
L 651.972794 391.715892 
L 652.430514 388.544721 
L 652.388903 387.391568 
L 652.218677 386.605327 
L 651.76474 383.067243 
L 652.7634 380.472649 
L 653.983985 378.742919 
L 655.371012 376.340517 
L 656.401376 374.418595 
L 658.203469 372.597826 
L 661.75134 370.09427 
L 664.8028 366.730907 
L 665.016189 365.769946 
L 667.844858 363.351256 
L 668.983015 361.445622 
L 668.908402 357.697874 
L 668.442361 357.121297 
L 668.919141 356.56332 
L 669.954618 352.796973 
L 670.82453 351.214903 
L 673.124966 350.394571 
L 674.931328 349.679437 
L 675.946577 348.472649 
L 677.716758 345.855294 
L 678.702278 344.148324 
L 679.331915 340.00418 
L 679.454856 339.824 
L 681.941638 335.875704 
L 681.724538 335.499676 
L 679.227888 331.175351 
L 676.731238 326.851027 
L 674.234589 322.526703 
L 671.737939 318.202378 
L 669.241289 313.878054 
z
" clip-path="url(#p46786fcce5)" style="fill: #c8e020"/>
    <path d="M 681.941638 335.875704 
L 679.454856 339.824 
L 679.331915 340.00418 
L 678.702278 344.148324 
L 677.716758 345.855294 
L 675.946577 348.472649 
L 674.931328 349.679437 
L 673.124966 350.394571 
L 670.82453 351.214903 
L 669.954618 352.796973 
L 668.919141 356.56332 
L 668.442361 357.121297 
L 668.908402 357.697874 
L 668.983015 361.445622 
L 667.844858 363.351256 
L 665.016189 365.769946 
L 664.8028 366.730907 
L 661.75134 370.09427 
L 658.203469 372.597826 
L 656.401376 374.418595 
L 655.371012 376.340517 
L 653.983985 378.742919 
L 652.7634 380.472649 
L 651.76474 383.067243 
L 652.218677 386.605327 
L 652.388903 387.391568 
L 652.430514 388.544721 
L 651.972794 391.715892 
L 650.315073 393.529318 
L 647.034246 396.040216 
L 647.395603 397.121297 
L 648.643928 400.364541 
L 646.291316 403.857264 
L 645.811191 404.688865 
L 643.96271 408.472649 
L 643.593886 409.013189 
L 640.636815 411.36068 
L 638.924827 413.337514 
L 639.675699 416.97905 
L 639.836302 417.661838 
L 639.489545 418.022198 
L 638.449275 419.103279 
L 636.428177 421.368402 
L 635.876969 421.986162 
L 633.664029 425.229405 
L 632.623758 426.310486 
L 633.82007 427.121297 
L 635.120408 427.751928 
L 637.741005 428.978687 
L 640.241741 430.634811 
L 637.465746 431.814172 
L 635.920616 432.131692 
L 633.125368 432.945066 
L 629.627779 434.382559 
L 628.740081 433.998174 
L 628.925018 434.959135 
L 628.358648 436.580757 
L 630.639242 439.283459 
L 631.533268 439.730803 
L 631.355619 443.607784 
L 630.619645 445.902323 
L 628.202608 447.932108 
L 630.515476 450.142318 
L 633.218199 452.256432 
L 631.188902 455.536954 
L 630.939027 456.580757 
L 629.156189 460.664841 
L 624.564398 460.449889 
L 624.089112 460.537053 
L 623.696344 460.905081 
L 623.714145 461.922569 
L 623.659597 465.229405 
L 625.761897 467.024408 
L 626.544959 469.55373 
L 625.591528 471.787964 
L 621.971386 473.878054 
L 622.161607 474.495815 
L 623.469376 478.202378 
L 623.420422 479.72861 
L 623.374265 482.526703 
L 622.401968 483.56078 
L 622.002046 486.851027 
L 621.203897 490.13431 
L 619.950288 491.175351 
L 620.506685 493.424 
L 622.832975 495.499676 
L 620.096708 496.865252 
L 619.308293 499.824 
L 621.804943 499.824 
L 626.798242 499.824 
L 631.791542 499.824 
L 636.784841 499.824 
L 641.778141 499.824 
L 646.771441 499.824 
L 651.76474 499.824 
L 656.75804 499.824 
L 661.75134 499.824 
L 666.744639 499.824 
L 671.737939 499.824 
L 676.731238 499.824 
L 681.724538 499.824 
L 686.717838 499.824 
L 691.711137 499.824 
L 696.703938 499.824 
L 701.697237 499.824 
L 706.690537 499.824 
L 711.683836 499.824 
L 716.677136 499.824 
L 721.670436 499.824 
L 726.663735 499.824 
L 731.657035 499.824 
L 736.650335 499.824 
L 741.643634 499.824 
L 746.636934 499.824 
L 751.630233 499.824 
L 756.623533 499.824 
L 761.616833 499.824 
L 766.610132 499.824 
L 771.603432 499.824 
L 776.596732 499.824 
L 734.154184 426.310486 
L 731.657534 421.986162 
L 729.160884 417.661838 
L 726.664235 413.337514 
L 724.167585 409.013189 
L 721.670935 404.688865 
L 719.174285 400.364541 
L 716.677635 396.040216 
L 714.180986 391.715892 
L 711.684336 387.391568 
L 709.187686 383.067243 
L 706.691036 378.742919 
L 704.194386 374.418595 
L 701.697737 370.09427 
L 699.201087 365.769946 
L 689.214487 348.472649 
L 686.717838 344.148324 
L 684.221188 339.824 
z
" clip-path="url(#p46786fcce5)" style="fill: #fde725"/>
   </g>
   <g id="text_1">
    <!-- $\mathcal{X}$ -->
    <g transform="translate(220.024025 524.790498) scale(0.2 -0.2)">
     <defs>
      <path id="STIXNonUnicode-Italic-e244" d="M 2842 3027 
L 2906 2419 
Q 3181 2547 3344 2627 
Q 3507 2707 3724 2832 
Q 3942 2957 4060 3059 
Q 4179 3162 4265 3290 
Q 4352 3418 4352 3552 
Q 4352 3706 4230 3706 
Q 4211 3706 4166 3667 
Q 4122 3629 4019 3629 
Q 3917 3629 3859 3718 
Q 3802 3808 3802 3930 
Q 3802 4096 3923 4198 
Q 4045 4301 4243 4301 
Q 4435 4301 4582 4141 
Q 4730 3981 4730 3693 
Q 4730 3258 4314 2928 
Q 3898 2598 2950 2157 
L 3110 1056 
Q 3200 397 3539 397 
Q 3776 397 3904 608 
L 4026 518 
Q 3776 0 3258 0 
Q 2938 0 2746 237 
Q 2554 474 2477 1094 
L 2374 1920 
Q 1357 1414 992 1132 
Q 627 851 627 595 
Q 627 506 678 506 
Q 691 506 742 534 
Q 794 563 845 563 
Q 1101 563 1101 294 
Q 1101 147 982 32 
Q 864 -83 646 -83 
Q 480 -83 361 48 
Q 243 179 243 422 
Q 243 678 387 899 
Q 531 1120 819 1328 
Q 1107 1536 1443 1721 
Q 1779 1907 2259 2150 
Q 2317 2176 2342 2189 
L 2189 3168 
Q 2080 3840 1779 3840 
Q 1536 3840 1408 3622 
L 1267 3686 
Q 1530 4237 2061 4237 
Q 2387 4237 2579 3958 
Q 2771 3680 2842 3027 
z
" transform="scale(0.015625)"/>
     </defs>
     <use xlink:href="#STIXNonUnicode-Italic-e244" transform="translate(0 0.796875)"/>
    </g>
   </g>
   <g id="text_2">
    <!-- $\mathcal{ZZ}^\dag$ -->
    <g transform="translate(819.840474 524.790498) scale(0.2 -0.2)">
     <defs>
      <path id="STIXNonUnicode-Italic-e246" d="M 4570 4237 
L 4531 4102 
Q 4346 4077 3962 3616 
L 2938 2400 
L 3642 2400 
L 3533 2157 
L 2726 2157 
Q 2650 2074 2445 1840 
Q 2240 1606 2150 1504 
Q 2061 1402 1881 1206 
Q 1702 1011 1584 889 
Q 1466 768 1306 611 
Q 1146 454 998 326 
Q 1062 339 1197 339 
Q 1562 339 1923 188 
Q 2285 38 2627 -112 
Q 2970 -262 3290 -262 
Q 3629 -262 3846 -96 
Q 4064 70 4141 294 
L 4282 294 
Q 4186 -6 4026 -198 
Q 3866 -390 3638 -473 
Q 3411 -557 3232 -579 
Q 3053 -602 2797 -602 
Q 2528 -602 2233 -522 
Q 1939 -442 1580 -304 
Q 1222 -166 1043 -115 
Q 627 0 301 0 
L 243 0 
L 262 122 
Q 704 339 1037 691 
Q 1722 1389 2387 2157 
L 1670 2157 
L 1766 2400 
L 2598 2400 
L 3578 3571 
L 3533 3603 
Q 3392 3590 3315 3590 
Q 3053 3590 2768 3744 
Q 2483 3898 2285 3898 
Q 1926 3898 1625 3664 
Q 1325 3430 1171 3206 
L 1043 3277 
Q 1350 3744 1814 3997 
Q 2278 4250 2746 4250 
Q 2880 4250 3200 4179 
Q 3520 4109 3674 4109 
Q 3866 4109 4138 4173 
Q 4410 4237 4570 4237 
z
" transform="scale(0.015625)"/>
      <path id="DejaVuSans-2020" d="M 1325 4666 
L 1875 4666 
L 1875 3353 
L 3022 3353 
L 3022 2875 
L 1875 2875 
L 1875 -616 
L 1325 -616 
L 1325 2875 
L 178 2875 
L 178 3353 
L 1325 3353 
L 1325 4666 
z
" transform="scale(0.015625)"/>
     </defs>
     <use xlink:href="#STIXNonUnicode-Italic-e246" transform="translate(0 0.684375)"/>
     <use xlink:href="#STIXNonUnicode-Italic-e246" transform="translate(75.199982 0.684375)"/>
     <use xlink:href="#DejaVuSans-2020" transform="translate(151.356995 38.965625) scale(0.7)"/>
    </g>
   </g>
   <g id="text_3">
    <!-- $\mathcal{X}^2, \mathcal{Z}^2\mathcal{Z}^2$ -->
    <g transform="translate(485.33225 42.425069) scale(0.2 -0.2)">
     <defs>
      <path id="DejaVuSans-32" d="M 1228 531 
L 3431 531 
L 3431 0 
L 469 0 
L 469 531 
Q 828 903 1448 1529 
Q 2069 2156 2228 2338 
Q 2531 2678 2651 2914 
Q 2772 3150 2772 3378 
Q 2772 3750 2511 3984 
Q 2250 4219 1831 4219 
Q 1534 4219 1204 4116 
Q 875 4013 500 3803 
L 500 4441 
Q 881 4594 1212 4672 
Q 1544 4750 1819 4750 
Q 2544 4750 2975 4387 
Q 3406 4025 3406 3419 
Q 3406 3131 3298 2873 
Q 3191 2616 2906 2266 
Q 2828 2175 2409 1742 
Q 1991 1309 1228 531 
z
" transform="scale(0.015625)"/>
      <path id="DejaVuSans-2c" d="M 750 794 
L 1409 794 
L 1409 256 
L 897 -744 
L 494 -744 
L 750 256 
L 750 794 
z
" transform="scale(0.015625)"/>
     </defs>
     <use xlink:href="#STIXNonUnicode-Italic-e244" transform="translate(0 0.765625)"/>
     <use xlink:href="#DejaVuSans-32" transform="translate(70.157013 39.046875) scale(0.7)"/>
     <use xlink:href="#DejaVuSans-2c" transform="translate(117.427521 0.765625)"/>
     <use xlink:href="#STIXNonUnicode-Italic-e246" transform="translate(168.697052 0.765625)"/>
     <use xlink:href="#DejaVuSans-32" transform="translate(244.854065 39.046875) scale(0.7)"/>
     <use xlink:href="#STIXNonUnicode-Italic-e246" transform="translate(292.124573 0.765625)"/>
     <use xlink:href="#DejaVuSans-32" transform="translate(368.281586 39.046875) scale(0.7)"/>
    </g>
   </g>
  </g>
  <g id="axes_2">
   <g id="patch_3">
    <path d="M 873.936 459.490909 
L 925.344 459.490909 
L 925.344 102.109091 
L 873.936 102.109091 
z
" style="fill: #ffffff"/>
   </g>
   <g id="patch_4">
    <path d="M 873.936 459.490909 
L 899.64 477.36 
L 925.344 459.490909 
" style="fill: #440154"/>
   </g>
   <g id="patch_5">
    <path d="M 873.936 102.109091 
L 899.64 84.24 
L 925.344 102.109091 
" style="fill: #fde725"/>
   </g>
   <g id="QuadMesh_1">
    <path d="M 873.936 459.490909 
L 925.344 459.490909 
L 925.344 399.927273 
L 873.936 399.927273 
L 873.936 459.490909 
" clip-path="url(#pdee206d42f)" style="fill: #481f70"/>
    <path d="M 873.936 399.927273 
L 925.344 399.927273 
L 925.344 340.363636 
L 873.936 340.363636 
L 873.936 399.927273 
" clip-path="url(#pdee206d42f)" style="fill: #3b528b"/>
    <path d="M 873.936 340.363636 
L 925.344 340.363636 
L 925.344 280.8 
L 873.936 280.8 
L 873.936 340.363636 
" clip-path="url(#pdee206d42f)" style="fill: #287c8e"/>
    <path d="M 873.936 280.8 
L 925.344 280.8 
L 925.344 221.236364 
L 873.936 221.236364 
L 873.936 280.8 
" clip-path="url(#pdee206d42f)" style="fill: #20a486"/>
    <path d="M 873.936 221.236364 
L 925.344 221.236364 
L 925.344 161.672727 
L 873.936 161.672727 
L 873.936 221.236364 
" clip-path="url(#pdee206d42f)" style="fill: #5ec962"/>
    <path d="M 873.936 161.672727 
L 925.344 161.672727 
L 925.344 102.109091 
L 873.936 102.109091 
L 873.936 161.672727 
" clip-path="url(#pdee206d42f)" style="fill: #c8e020"/>
   </g>
   <g id="matplotlib.axis_1"/>
   <g id="matplotlib.axis_2">
    <g id="ytick_1">
     <g id="line2d_1">
      <defs>
       <path id="mb8a5079c9e" d="M 0 0 
L 3.5 0 
" style="stroke: #000000; stroke-width: 0.8"/>
      </defs>
      <g>
       <use xlink:href="#mb8a5079c9e" x="925.344" y="459.490909" style="stroke: #000000; stroke-width: 0.8"/>
      </g>
     </g>
     <g id="text_4">
      <!-- 0.25 -->
      <g transform="translate(932.344 463.290128) scale(0.1 -0.1)">
       <defs>
        <path id="DejaVuSans-30" d="M 2034 4250 
Q 1547 4250 1301 3770 
Q 1056 3291 1056 2328 
Q 1056 1369 1301 889 
Q 1547 409 2034 409 
Q 2525 409 2770 889 
Q 3016 1369 3016 2328 
Q 3016 3291 2770 3770 
Q 2525 4250 2034 4250 
z
M 2034 4750 
Q 2819 4750 3233 4129 
Q 3647 3509 3647 2328 
Q 3647 1150 3233 529 
Q 2819 -91 2034 -91 
Q 1250 -91 836 529 
Q 422 1150 422 2328 
Q 422 3509 836 4129 
Q 1250 4750 2034 4750 
z
" transform="scale(0.015625)"/>
        <path id="DejaVuSans-2e" d="M 684 794 
L 1344 794 
L 1344 0 
L 684 0 
L 684 794 
z
" transform="scale(0.015625)"/>
        <path id="DejaVuSans-35" d="M 691 4666 
L 3169 4666 
L 3169 4134 
L 1269 4134 
L 1269 2991 
Q 1406 3038 1543 3061 
Q 1681 3084 1819 3084 
Q 2600 3084 3056 2656 
Q 3513 2228 3513 1497 
Q 3513 744 3044 326 
Q 2575 -91 1722 -91 
Q 1428 -91 1123 -41 
Q 819 9 494 109 
L 494 744 
Q 775 591 1075 516 
Q 1375 441 1709 441 
Q 2250 441 2565 725 
Q 2881 1009 2881 1497 
Q 2881 1984 2565 2268 
Q 2250 2553 1709 2553 
Q 1456 2553 1204 2497 
Q 953 2441 691 2322 
L 691 4666 
z
" transform="scale(0.015625)"/>
       </defs>
       <use xlink:href="#DejaVuSans-30"/>
       <use xlink:href="#DejaVuSans-2e" x="63.623047"/>
       <use xlink:href="#DejaVuSans-32" x="95.410156"/>
       <use xlink:href="#DejaVuSans-35" x="159.033203"/>
      </g>
     </g>
    </g>
    <g id="ytick_2">
     <g id="line2d_2">
      <g>
       <use xlink:href="#mb8a5079c9e" x="925.344" y="399.927273" style="stroke: #000000; stroke-width: 0.8"/>
      </g>
     </g>
     <g id="text_5">
      <!-- 0.50 -->
      <g transform="translate(932.344 403.726491) scale(0.1 -0.1)">
       <use xlink:href="#DejaVuSans-30"/>
       <use xlink:href="#DejaVuSans-2e" x="63.623047"/>
       <use xlink:href="#DejaVuSans-35" x="95.410156"/>
       <use xlink:href="#DejaVuSans-30" x="159.033203"/>
      </g>
     </g>
    </g>
    <g id="ytick_3">
     <g id="line2d_3">
      <g>
       <use xlink:href="#mb8a5079c9e" x="925.344" y="340.363636" style="stroke: #000000; stroke-width: 0.8"/>
      </g>
     </g>
     <g id="text_6">
      <!-- 0.75 -->
      <g transform="translate(932.344 344.162855) scale(0.1 -0.1)">
       <defs>
        <path id="DejaVuSans-37" d="M 525 4666 
L 3525 4666 
L 3525 4397 
L 1831 0 
L 1172 0 
L 2766 4134 
L 525 4134 
L 525 4666 
z
" transform="scale(0.015625)"/>
       </defs>
       <use xlink:href="#DejaVuSans-30"/>
       <use xlink:href="#DejaVuSans-2e" x="63.623047"/>
       <use xlink:href="#DejaVuSans-37" x="95.410156"/>
       <use xlink:href="#DejaVuSans-35" x="159.033203"/>
      </g>
     </g>
    </g>
    <g id="ytick_4">
     <g id="line2d_4">
      <g>
       <use xlink:href="#mb8a5079c9e" x="925.344" y="280.8" style="stroke: #000000; stroke-width: 0.8"/>
      </g>
     </g>
     <g id="text_7">
      <!-- 1.00 -->
      <g transform="translate(932.344 284.599219) scale(0.1 -0.1)">
       <defs>
        <path id="DejaVuSans-31" d="M 794 531 
L 1825 531 
L 1825 4091 
L 703 3866 
L 703 4441 
L 1819 4666 
L 2450 4666 
L 2450 531 
L 3481 531 
L 3481 0 
L 794 0 
L 794 531 
z
" transform="scale(0.015625)"/>
       </defs>
       <use xlink:href="#DejaVuSans-31"/>
       <use xlink:href="#DejaVuSans-2e" x="63.623047"/>
       <use xlink:href="#DejaVuSans-30" x="95.410156"/>
       <use xlink:href="#DejaVuSans-30" x="159.033203"/>
      </g>
     </g>
    </g>
    <g id="ytick_5">
     <g id="line2d_5">
      <g>
       <use xlink:href="#mb8a5079c9e" x="925.344" y="221.236364" style="stroke: #000000; stroke-width: 0.8"/>
      </g>
     </g>
     <g id="text_8">
      <!-- 1.25 -->
      <g transform="translate(932.344 225.035582) scale(0.1 -0.1)">
       <use xlink:href="#DejaVuSans-31"/>
       <use xlink:href="#DejaVuSans-2e" x="63.623047"/>
       <use xlink:href="#DejaVuSans-32" x="95.410156"/>
       <use xlink:href="#DejaVuSans-35" x="159.033203"/>
      </g>
     </g>
    </g>
    <g id="ytick_6">
     <g id="line2d_6">
      <g>
       <use xlink:href="#mb8a5079c9e" x="925.344" y="161.672727" style="stroke: #000000; stroke-width: 0.8"/>
      </g>
     </g>
     <g id="text_9">
      <!-- 1.50 -->
      <g transform="translate(932.344 165.471946) scale(0.1 -0.1)">
       <use xlink:href="#DejaVuSans-31"/>
       <use xlink:href="#DejaVuSans-2e" x="63.623047"/>
       <use xlink:href="#DejaVuSans-35" x="95.410156"/>
       <use xlink:href="#DejaVuSans-30" x="159.033203"/>
      </g>
     </g>
    </g>
    <g id="ytick_7">
     <g id="line2d_7">
      <g>
       <use xlink:href="#mb8a5079c9e" x="925.344" y="102.109091" style="stroke: #000000; stroke-width: 0.8"/>
      </g>
     </g>
     <g id="text_10">
      <!-- 1.75 -->
      <g transform="translate(932.344 105.90831) scale(0.1 -0.1)">
       <use xlink:href="#DejaVuSans-31"/>
       <use xlink:href="#DejaVuSans-2e" x="63.623047"/>
       <use xlink:href="#DejaVuSans-37" x="95.410156"/>
       <use xlink:href="#DejaVuSans-35" x="159.033203"/>
      </g>
     </g>
    </g>
    <g id="text_11">
     <!-- Mutual Information $I$ -->
     <g transform="translate(966.208062 331.55) rotate(-90) scale(0.1 -0.1)">
      <defs>
       <path id="DejaVuSans-4d" d="M 628 4666 
L 1569 4666 
L 2759 1491 
L 3956 4666 
L 4897 4666 
L 4897 0 
L 4281 0 
L 4281 4097 
L 3078 897 
L 2444 897 
L 1241 4097 
L 1241 0 
L 628 0 
L 628 4666 
z
" transform="scale(0.015625)"/>
       <path id="DejaVuSans-75" d="M 544 1381 
L 544 3500 
L 1119 3500 
L 1119 1403 
Q 1119 906 1312 657 
Q 1506 409 1894 409 
Q 2359 409 2629 706 
Q 2900 1003 2900 1516 
L 2900 3500 
L 3475 3500 
L 3475 0 
L 2900 0 
L 2900 538 
Q 2691 219 2414 64 
Q 2138 -91 1772 -91 
Q 1169 -91 856 284 
Q 544 659 544 1381 
z
M 1991 3584 
L 1991 3584 
z
" transform="scale(0.015625)"/>
       <path id="DejaVuSans-74" d="M 1172 4494 
L 1172 3500 
L 2356 3500 
L 2356 3053 
L 1172 3053 
L 1172 1153 
Q 1172 725 1289 603 
Q 1406 481 1766 481 
L 2356 481 
L 2356 0 
L 1766 0 
Q 1100 0 847 248 
Q 594 497 594 1153 
L 594 3053 
L 172 3053 
L 172 3500 
L 594 3500 
L 594 4494 
L 1172 4494 
z
" transform="scale(0.015625)"/>
       <path id="DejaVuSans-61" d="M 2194 1759 
Q 1497 1759 1228 1600 
Q 959 1441 959 1056 
Q 959 750 1161 570 
Q 1363 391 1709 391 
Q 2188 391 2477 730 
Q 2766 1069 2766 1631 
L 2766 1759 
L 2194 1759 
z
M 3341 1997 
L 3341 0 
L 2766 0 
L 2766 531 
Q 2569 213 2275 61 
Q 1981 -91 1556 -91 
Q 1019 -91 701 211 
Q 384 513 384 1019 
Q 384 1609 779 1909 
Q 1175 2209 1959 2209 
L 2766 2209 
L 2766 2266 
Q 2766 2663 2505 2880 
Q 2244 3097 1772 3097 
Q 1472 3097 1187 3025 
Q 903 2953 641 2809 
L 641 3341 
Q 956 3463 1253 3523 
Q 1550 3584 1831 3584 
Q 2591 3584 2966 3190 
Q 3341 2797 3341 1997 
z
" transform="scale(0.015625)"/>
       <path id="DejaVuSans-6c" d="M 603 4863 
L 1178 4863 
L 1178 0 
L 603 0 
L 603 4863 
z
" transform="scale(0.015625)"/>
       <path id="DejaVuSans-20" transform="scale(0.015625)"/>
       <path id="DejaVuSans-49" d="M 628 4666 
L 1259 4666 
L 1259 0 
L 628 0 
L 628 4666 
z
" transform="scale(0.015625)"/>
       <path id="DejaVuSans-6e" d="M 3513 2113 
L 3513 0 
L 2938 0 
L 2938 2094 
Q 2938 2591 2744 2837 
Q 2550 3084 2163 3084 
Q 1697 3084 1428 2787 
Q 1159 2491 1159 1978 
L 1159 0 
L 581 0 
L 581 3500 
L 1159 3500 
L 1159 2956 
Q 1366 3272 1645 3428 
Q 1925 3584 2291 3584 
Q 2894 3584 3203 3211 
Q 3513 2838 3513 2113 
z
" transform="scale(0.015625)"/>
       <path id="DejaVuSans-66" d="M 2375 4863 
L 2375 4384 
L 1825 4384 
Q 1516 4384 1395 4259 
Q 1275 4134 1275 3809 
L 1275 3500 
L 2222 3500 
L 2222 3053 
L 1275 3053 
L 1275 0 
L 697 0 
L 697 3053 
L 147 3053 
L 147 3500 
L 697 3500 
L 697 3744 
Q 697 4328 969 4595 
Q 1241 4863 1831 4863 
L 2375 4863 
z
" transform="scale(0.015625)"/>
       <path id="DejaVuSans-6f" d="M 1959 3097 
Q 1497 3097 1228 2736 
Q 959 2375 959 1747 
Q 959 1119 1226 758 
Q 1494 397 1959 397 
Q 2419 397 2687 759 
Q 2956 1122 2956 1747 
Q 2956 2369 2687 2733 
Q 2419 3097 1959 3097 
z
M 1959 3584 
Q 2709 3584 3137 3096 
Q 3566 2609 3566 1747 
Q 3566 888 3137 398 
Q 2709 -91 1959 -91 
Q 1206 -91 779 398 
Q 353 888 353 1747 
Q 353 2609 779 3096 
Q 1206 3584 1959 3584 
z
" transform="scale(0.015625)"/>
       <path id="DejaVuSans-72" d="M 2631 2963 
Q 2534 3019 2420 3045 
Q 2306 3072 2169 3072 
Q 1681 3072 1420 2755 
Q 1159 2438 1159 1844 
L 1159 0 
L 581 0 
L 581 3500 
L 1159 3500 
L 1159 2956 
Q 1341 3275 1631 3429 
Q 1922 3584 2338 3584 
Q 2397 3584 2469 3576 
Q 2541 3569 2628 3553 
L 2631 2963 
z
" transform="scale(0.015625)"/>
       <path id="DejaVuSans-6d" d="M 3328 2828 
Q 3544 3216 3844 3400 
Q 4144 3584 4550 3584 
Q 5097 3584 5394 3201 
Q 5691 2819 5691 2113 
L 5691 0 
L 5113 0 
L 5113 2094 
Q 5113 2597 4934 2840 
Q 4756 3084 4391 3084 
Q 3944 3084 3684 2787 
Q 3425 2491 3425 1978 
L 3425 0 
L 2847 0 
L 2847 2094 
Q 2847 2600 2669 2842 
Q 2491 3084 2119 3084 
Q 1678 3084 1418 2786 
Q 1159 2488 1159 1978 
L 1159 0 
L 581 0 
L 581 3500 
L 1159 3500 
L 1159 2956 
Q 1356 3278 1631 3431 
Q 1906 3584 2284 3584 
Q 2666 3584 2933 3390 
Q 3200 3197 3328 2828 
z
" transform="scale(0.015625)"/>
       <path id="DejaVuSans-69" d="M 603 3500 
L 1178 3500 
L 1178 0 
L 603 0 
L 603 3500 
z
M 603 4863 
L 1178 4863 
L 1178 4134 
L 603 4134 
L 603 4863 
z
" transform="scale(0.015625)"/>
       <path id="DejaVuSans-Oblique-49" d="M 1081 4666 
L 1716 4666 
L 806 0 
L 172 0 
L 1081 4666 
z
" transform="scale(0.015625)"/>
      </defs>
      <use xlink:href="#DejaVuSans-4d" transform="translate(0 0.015625)"/>
      <use xlink:href="#DejaVuSans-75" transform="translate(86.279297 0.015625)"/>
      <use xlink:href="#DejaVuSans-74" transform="translate(149.658203 0.015625)"/>
      <use xlink:href="#DejaVuSans-75" transform="translate(188.867188 0.015625)"/>
      <use xlink:href="#DejaVuSans-61" transform="translate(252.246094 0.015625)"/>
      <use xlink:href="#DejaVuSans-6c" transform="translate(313.525391 0.015625)"/>
      <use xlink:href="#DejaVuSans-20" transform="translate(341.308594 0.015625)"/>
      <use xlink:href="#DejaVuSans-49" transform="translate(373.095703 0.015625)"/>
      <use xlink:href="#DejaVuSans-6e" transform="translate(402.587891 0.015625)"/>
      <use xlink:href="#DejaVuSans-66" transform="translate(465.966797 0.015625)"/>
      <use xlink:href="#DejaVuSans-6f" transform="translate(501.171875 0.015625)"/>
      <use xlink:href="#DejaVuSans-72" transform="translate(562.353516 0.015625)"/>
      <use xlink:href="#DejaVuSans-6d" transform="translate(603.466797 0.015625)"/>
      <use xlink:href="#DejaVuSans-61" transform="translate(700.878906 0.015625)"/>
      <use xlink:href="#DejaVuSans-74" transform="translate(762.158203 0.015625)"/>
      <use xlink:href="#DejaVuSans-69" transform="translate(801.367188 0.015625)"/>
      <use xlink:href="#DejaVuSans-6f" transform="translate(829.150391 0.015625)"/>
      <use xlink:href="#DejaVuSans-6e" transform="translate(890.332031 0.015625)"/>
      <use xlink:href="#DejaVuSans-20" transform="translate(953.710938 0.015625)"/>
      <use xlink:href="#DejaVuSans-Oblique-49" transform="translate(985.498047 0.015625)"/>
     </g>
    </g>
   </g>
   <g id="LineCollection_1"/>
   <g id="patch_6">
    <path d="M 873.936 459.490909 
L 899.64 477.36 
L 925.344 459.490909 
L 925.344 102.109091 
L 899.64 84.24 
L 873.936 102.109091 
L 873.936 459.490909 
z
" style="fill: none; stroke: #000000; stroke-width: 0.8; stroke-linejoin: miter; stroke-linecap: square"/>
   </g>
  </g>
 </g>
 <defs>
  <clipPath id="p46786fcce5">
   <rect x="277.267268" y="67.392" width="499.329463" height="432.432"/>
  </clipPath>
  <clipPath id="pdee206d42f">
   <rect x="873.936" y="102.109091" width="51.408" height="357.381818"/>
  </clipPath>
 </defs>
</svg>
